<svg width="20" height="20" viewBox="0 0 20 20" fill="none" xmlns="http://www.w3.org/2000/svg">
<path d="M11.745 7.07031H3.7503C2.86849 7.07031 2.15137 7.78743 2.15137 8.66924V16.6639C2.15137 17.5457 2.86849 18.2628 3.7503 18.2628H11.745C12.6268 18.2628 13.3439 17.5457 13.3439 16.6639V8.66924C13.3439 7.78743 12.6268 7.07031 11.745 7.07031Z" fill="white"/>
<path d="M16.5418 2.27344H8.54717C8.12311 2.27344 7.71642 2.4419 7.41656 2.74175C7.1167 3.04161 6.94824 3.44831 6.94824 3.87237V5.4713H13.344C13.768 5.4713 14.1747 5.63976 14.4746 5.93962C14.7744 6.23947 14.9429 6.64617 14.9429 7.07023V13.466H16.5418C16.9659 13.466 17.3726 13.2975 17.6724 12.9976C17.9723 12.6978 18.1408 12.2911 18.1408 11.867V3.87237C18.1408 3.44831 17.9723 3.04161 17.6724 2.74175C17.3726 2.4419 16.9659 2.27344 16.5418 2.27344Z" fill="white"/>
</svg>
