<svg width="162" height="138" viewBox="0 0 162 138" fill="none" xmlns="http://www.w3.org/2000/svg">
<path d="M155.655 48.3334H122.521C121.21 48.3334 120.148 49.3959 120.148 50.7065C120.148 52.017 121.21 53.0795 122.521 53.0795H128.501V78.7616H106.335C107.895 74.4119 108.748 69.7279 108.748 64.8479C108.748 60.7606 108.148 56.8109 107.037 53.0795H110.805C112.116 53.0795 113.178 52.017 113.178 50.7065C113.178 49.3959 112.116 48.3334 110.805 48.3334H105.3C98.9146 33.749 84.3454 23.5325 67.4325 23.5325C64.7823 23.5325 62.1359 23.7879 59.553 24.2865C57.6309 22.7482 55.1961 21.8252 52.5484 21.8252C46.4317 21.8252 41.4445 26.7409 41.3223 32.8292C36.1586 37.0421 32.1475 42.3546 29.5441 48.3334H6.34489C2.84639 48.3334 0 51.1795 0 54.6783V77.1628C0 80.6613 2.84639 83.5077 6.34489 83.5077H30.5702C32.9619 88.2253 36.2573 92.4851 40.3152 96.0187C47.8283 102.561 57.4587 106.164 67.4325 106.164C75.8612 106.164 83.7069 103.624 90.2495 99.2739L126.091 135.115C127.61 136.634 129.605 137.393 131.6 137.393C133.596 137.393 135.591 136.634 137.11 135.115C140.148 132.077 140.148 127.134 137.11 124.096L101.381 88.3664C102.456 86.8198 103.428 85.1973 104.287 83.5074H155.655C159.154 83.5074 162 80.661 162 77.1625V54.678C162 51.1795 159.154 48.3334 155.655 48.3334ZM52.5484 26.5713C56.1248 26.5713 59.0341 29.4806 59.0341 33.057C59.0341 36.633 56.1248 39.5427 52.5484 39.5427C48.9721 39.5427 46.0627 36.6333 46.0627 33.057C46.0627 29.4806 48.9721 26.5713 52.5484 26.5713ZM43.4321 92.4392C36.8468 86.7049 32.5231 78.8163 31.2575 70.2265C31.0663 68.9296 29.8561 68.0335 28.5639 68.2246C27.2669 68.4157 26.3709 69.6215 26.562 70.9182C26.9578 73.6051 27.6194 76.2309 28.5256 78.7616H6.34489C5.46339 78.7616 4.74609 78.0443 4.74609 77.1628V54.6783C4.74609 53.7968 5.46339 53.0795 6.34489 53.0795H27.8184C27.2964 54.8444 26.8882 56.652 26.6034 58.4948C26.4035 59.7898 27.2913 61.002 28.5867 61.2023C28.7094 61.2213 28.8313 61.2304 28.9515 61.2304C30.1023 61.2304 31.1129 60.3917 31.2938 59.2194C32.5519 51.0725 36.499 43.6769 42.5101 38.0869C43.423 39.9015 44.8129 41.4348 46.5149 42.5236C40.3972 48.2711 36.8348 56.3666 36.8348 64.8482C36.8348 71.8914 39.2866 78.7673 43.7387 84.2088C48.1282 89.5735 54.2583 93.3226 61.0003 94.7657C61.1677 94.8015 61.3347 94.8186 61.4992 94.8186C62.5943 94.8186 63.5787 94.0557 63.8172 92.9416C64.0916 91.6602 63.2749 90.3987 61.9932 90.1244C50.1653 87.5928 41.5805 76.9622 41.5805 64.8479C41.5805 56.7871 45.3897 49.1377 51.7976 44.2606C52.046 44.2771 52.2956 44.2885 52.5478 44.2885C56.2779 44.2885 59.5875 42.459 61.6312 39.6518C63.5236 39.2184 65.4717 38.9966 67.4319 38.9966C81.6863 38.9966 93.2829 50.5935 93.2829 64.8479C93.2829 77.0334 84.6387 87.6766 72.7282 90.1554C71.4452 90.4224 70.6216 91.6792 70.8886 92.9622C71.1218 94.0823 72.1087 94.8521 73.2094 94.8521C73.3699 94.8521 73.5325 94.8356 73.6954 94.8018C87.7955 91.8671 98.029 79.2697 98.029 64.8476C98.029 47.9762 84.303 34.2502 67.4319 34.2502C66.177 34.2502 64.9259 34.3274 63.6862 34.4789C63.7454 34.0129 63.7796 33.5389 63.7796 33.0567C63.7796 31.4607 63.4429 29.9426 62.8402 28.5662C64.3592 28.3764 65.8944 28.2783 67.4319 28.2783C87.5961 28.2783 104.001 44.6833 104.001 64.8476C104.001 85.0119 87.5971 101.417 67.4325 101.417C58.6044 101.417 50.0808 98.2288 43.4321 92.4392ZM133.754 131.759C132.567 132.946 130.634 132.946 129.447 131.759L102.272 104.584L106.579 100.277L133.754 127.452C134.941 128.639 134.941 130.572 133.754 131.759ZM103.223 96.9211L98.9162 101.228L94.0812 96.393C95.6335 95.0796 97.0877 93.6545 98.4318 92.1294L103.223 96.9211ZM157.254 77.1628C157.254 78.0443 156.537 78.7616 155.655 78.7616H133.248V53.0795H155.655C156.537 53.0795 157.254 53.7968 157.254 54.6783V77.1628Z" fill="#7D8491"/>
<path d="M142.215 60.183C140.391 62.0074 139.945 64.6943 140.872 66.943L138.391 69.4239C137.465 70.3507 137.465 71.8533 138.391 72.7798C138.855 73.243 139.462 73.4749 140.07 73.4749C140.677 73.4749 141.284 73.2433 141.748 72.7798L144.229 70.2988C144.987 70.6117 145.794 70.7699 146.602 70.7699C148.19 70.7699 149.779 70.1653 150.988 68.9563H150.989C153.407 66.5374 153.407 62.6019 150.988 60.183C148.569 57.7644 144.634 57.7647 142.215 60.183ZM147.633 65.6002C147.064 66.1684 146.139 66.1684 145.571 65.6002C145.003 65.0319 145.003 64.1071 145.571 63.5388C145.855 63.2547 146.228 63.1126 146.602 63.1126C146.975 63.1126 147.348 63.2547 147.632 63.5388C148.201 64.1074 148.201 65.0319 147.633 65.6002Z" fill="#7D8491"/>
<path d="M16.821 38.3006C17.2845 38.7638 17.892 38.9958 18.4992 38.9958C19.1064 38.9958 19.7139 38.7641 20.1774 38.3006L22.0635 36.4145L23.9496 38.3006C24.4131 38.7638 25.0206 38.9958 25.6278 38.9958C26.235 38.9958 26.8425 38.7641 27.306 38.3006C28.2328 37.3738 28.2328 35.8712 27.306 34.9448L25.4196 33.0584L27.306 31.172C28.2328 30.2452 28.2328 28.7426 27.306 27.8162C26.379 26.8894 24.8767 26.8894 23.9499 27.8162L22.0638 29.7023L20.1777 27.8162C19.2506 26.8894 17.7483 26.8894 16.8216 27.8162C15.8948 28.7429 15.8948 30.2455 16.8216 31.172L18.708 33.0584L16.8216 34.9448C15.8942 35.8712 15.8942 37.3738 16.821 38.3006Z" fill="#7D8491"/>
<path d="M111.137 34.7354L113.024 36.6219L111.137 38.5083C110.211 39.435 110.211 40.9376 111.137 41.8641C111.601 42.3273 112.208 42.5592 112.816 42.5592C113.423 42.5592 114.03 42.3276 114.494 41.8641L116.38 39.978L118.266 41.8641C118.73 42.3273 119.337 42.5592 119.944 42.5592C120.551 42.5592 121.159 42.3276 121.623 41.8641C122.549 40.9373 122.549 39.4347 121.623 38.5083L119.736 36.6219L121.623 34.7354C122.549 33.8087 122.549 32.3061 121.623 31.3796C120.695 30.4529 119.193 30.4529 118.266 31.3796L116.38 33.2657L114.494 31.3796C113.567 30.4529 112.065 30.4529 111.138 31.3796C110.211 32.3061 110.211 33.8087 111.137 34.7354Z" fill="#7D8491"/>
<path d="M36.1225 21.0096C41.7475 21.0096 46.3237 16.4334 46.3237 10.808C46.3237 5.18263 41.7475 0.606445 36.1225 0.606445C30.4974 0.606445 25.9209 5.18295 25.9209 10.808C25.9209 16.4331 30.4974 21.0096 36.1225 21.0096ZM36.1225 5.35254C39.1305 5.35254 41.5776 7.79962 41.5776 10.808C41.5776 13.8164 39.1305 16.2635 36.1225 16.2635C33.1141 16.2635 30.667 13.8164 30.667 10.808C30.667 7.79962 33.1141 5.35254 36.1225 5.35254Z" fill="#7D8491"/>
<path d="M102.017 27.2557C107.205 27.2557 111.427 23.0346 111.427 17.8461C111.427 12.6577 107.205 8.43652 102.017 8.43652C96.8286 8.43652 92.6074 12.6577 92.6074 17.8461C92.6074 23.0349 96.8283 27.2557 102.017 27.2557ZM102.017 13.1826C104.588 13.1826 106.681 15.2747 106.681 17.8461C106.681 20.4176 104.588 22.5096 102.017 22.5096C99.4456 22.5096 97.3535 20.4176 97.3535 17.8461C97.3535 15.2747 99.4456 13.1826 102.017 13.1826Z" fill="#7D8491"/>
<path d="M72.515 73.6867C73.1854 73.6867 73.8518 73.4041 74.321 72.8542C75.1718 71.8575 75.0535 70.3597 74.0568 69.5085C72.122 67.8569 69.5525 66.9428 66.8219 66.9346C66.8095 66.9346 66.7972 66.9346 66.7845 66.9346C64.0682 66.9346 61.5078 67.8325 59.5717 69.4652C58.57 70.31 58.4425 71.8072 59.2876 72.8093C60.1321 73.811 61.6293 73.9385 62.6314 73.0937C63.6967 72.1951 65.2098 71.681 66.7858 71.681H66.8076C68.3916 71.6857 69.911 72.2097 70.9757 73.1187C71.4224 73.5003 71.9701 73.6867 72.515 73.6867Z" fill="#7D8491"/>
<path d="M54.2219 58.1543H54.1941C52.8832 58.1543 51.835 59.2168 51.835 60.5273C51.835 61.8379 52.9111 62.9004 54.2219 62.9004C55.5328 62.9004 56.595 61.8379 56.595 60.5273C56.595 59.2168 55.5328 58.1543 54.2219 58.1543Z" fill="#7D8491"/>
<path d="M79.7661 62.8827C79.7753 62.8836 79.7844 62.8858 79.7936 62.8868C79.8436 62.8922 79.8946 62.8931 79.9455 62.8953C79.9752 62.8966 80.0047 62.9001 80.0347 62.9004H80.048C81.3526 62.9004 82.4138 61.8464 82.4207 60.5403C82.4271 59.3886 81.6117 58.4245 80.5242 58.2027C80.5163 58.2011 80.5081 58.2005 80.5002 58.1989C80.4318 58.1856 80.3625 58.1742 80.2923 58.1673C80.2638 58.1644 80.2347 58.1644 80.2062 58.1625C80.1578 58.1594 80.11 58.1546 80.0613 58.1543H80.0331C80.0287 58.1543 80.0246 58.1543 80.0199 58.1543C79.9382 58.1543 79.8575 58.1584 79.7778 58.1666C78.5812 58.2869 77.6582 59.2978 77.6582 60.5277C77.6579 61.7436 78.585 62.7447 79.7661 62.8827Z" fill="#7D8491"/>
</svg>
