<svg width="52" height="29" viewBox="0 0 52 29" fill="none" xmlns="http://www.w3.org/2000/svg">
<path d="M16.1603 25.3434C16.5102 25.6855 17.0852 25.6417 17.3268 26.5366C17.4657 27.0695 18.3295 27.8848 18.4684 27.5348C18.5461 27.336 17.7629 27.0258 17.6046 26.29C17.5074 25.8286 17.5212 25.6934 17.2213 25.4946C16.9546 25.3168 16.6967 25.1135 16.4491 24.8861C16.0222 24.6097 15.6429 24.2024 15.3381 23.6929C15.2354 23.5259 14.8243 23.1441 15.2243 24.1105C15.4906 24.5874 15.8062 25.0032 16.1603 25.3434Z" fill="#002638"/>
<path d="M24.8435 15.738C24.5522 15.8908 24.0889 15.9017 23.9088 16.4531C23.8539 16.6838 23.8053 16.9207 23.7632 17.1627C23.6638 17.5378 23.5551 17.9022 23.4375 18.2543C23.3502 18.5273 23.0669 19.6299 23.4905 19.2587C23.7208 19.0513 23.8559 17.9214 23.9618 17.512C24.1298 17.0413 24.374 16.7102 24.6502 16.5786C24.7918 16.5019 24.9307 16.4052 25.0659 16.2893C25.1718 16.1747 25.2247 15.9236 25.3068 15.8253C25.5266 15.5633 25.9925 16.0218 26.0005 15.3941C26.0058 14.8483 25.1665 15.5579 24.8435 15.738Z" fill="#002638"/>
<path d="M37.3912 13.2016C37.4693 13.3708 37.5168 13.5612 37.5847 13.7347C37.69 13.997 38.1077 14.6655 38.2842 14.4625C38.4608 14.2594 37.8394 13.8405 37.7172 13.1677C37.6323 12.715 37.3334 12.4738 37.038 12.1819C36.3758 11.5303 35.0855 10.134 34.9123 10.3879C34.7867 10.5741 35.3639 11.0776 35.4964 11.213C35.8359 11.5642 36.2095 11.8857 36.566 12.2157C36.8968 12.4632 37.1788 12.8001 37.3912 13.2016Z" fill="#002638"/>
<path d="M15.035 12.4918C14.9397 12.5796 14.8553 12.7 14.7864 12.846C14.7176 12.9919 14.6657 13.1606 14.6338 13.3423C14.6008 13.5142 14.5532 13.6762 14.4928 13.8228C14.4142 14.039 14.3546 14.212 14.3709 14.3465C14.3789 14.3966 14.3973 14.4395 14.4224 14.4666C14.4418 14.4888 14.4643 14.5004 14.4874 14.5003C14.6121 14.5003 14.6961 14.1687 14.7856 13.818C14.8127 13.7123 14.8398 13.6114 14.8669 13.5249C14.9451 13.2091 15.0806 12.9486 15.2518 12.7849C15.4551 12.5543 15.6449 12.3044 15.8319 12.045C16.0808 11.6852 16.3465 11.3637 16.6261 11.084L16.6885 11.0263C17.0273 10.7236 17.1195 10.5987 17.1032 10.4689C17.087 10.3392 16.9975 10.3584 16.9514 10.3584C16.6434 10.4691 16.3578 10.7247 16.1247 11.0984C16.019 11.2377 15.9214 11.3963 15.8265 11.5452C15.7201 11.7194 15.6069 11.88 15.4877 12.0257C15.3421 12.1969 15.1909 12.3525 15.035 12.4918Z" fill="#002638"/>
<path d="M7.87467 22.1469C7.50228 22.5004 7.10496 22.8209 6.68647 23.1054C6.24855 23.3811 5.31146 25.298 5.20734 25.4594C5.10322 25.6208 4.63161 26.1992 4.84291 26.2362C5.34514 26.3136 6.20567 24.4304 6.27917 24.3127C6.49781 23.963 6.77037 23.658 7.08458 23.4114C7.33876 23.2264 8.02779 22.8229 8.19622 22.4025C8.21263 22.3561 8.21456 22.305 8.20172 22.2572C8.18888 22.2095 8.16198 22.1677 8.12524 22.1385C8.0885 22.1093 8.04398 22.0943 7.99865 22.0958C7.95331 22.0973 7.90972 22.1153 7.87467 22.1469Z" fill="#002638"/>
<path d="M18.082 17.9019C18.2839 18.0014 18.8532 18.7796 19.0948 18.6216C19.5748 18.3115 17.1684 16.9687 17.1089 17.3198C17.0625 17.5363 17.5027 17.548 17.6848 17.6913C17.8065 17.7762 17.94 17.847 18.082 17.9019Z" fill="#002638"/>
<path d="M37.9644 17.2812C38.2044 17.4716 39.3314 18.6628 39.334 18.6628C39.6445 18.8978 40.2863 19.0072 40.7507 19.4731C40.964 19.6592 41.1304 19.952 41.2229 20.3037C41.3131 20.5935 41.4252 20.8655 41.5568 21.114C41.6533 21.3247 41.8673 21.8028 41.9638 22.0257C42.1177 22.3741 42.269 22.7306 42.4151 23.0912C42.5612 23.4518 43.0778 23.9947 43.2343 24.2702C43.356 24.474 43.4896 24.6599 43.6335 24.8253C43.6514 24.8471 43.6737 24.8583 43.6964 24.8569C43.7192 24.8556 43.7409 24.8419 43.7577 24.8182C43.7746 24.7944 43.7855 24.7622 43.7885 24.7272C43.7915 24.6922 43.7865 24.6566 43.7743 24.6268C43.6048 24.2216 42.9134 23.1804 42.8456 23.0061C42.7066 22.6163 42.5497 22.2425 42.376 21.8879C42.2247 21.5678 42.0629 21.2559 41.9038 20.9439C41.7918 20.5406 41.661 20.1506 41.5124 19.777C41.4368 19.6798 41.3768 19.5542 41.3011 19.4569C41.1065 19.2302 40.8976 19.0347 40.6776 18.8735C40.4011 18.6763 40.1116 18.5269 39.8141 18.4278C39.64 18.3778 39.4747 18.2715 39.3288 18.1159C38.8253 17.577 38.0505 16.8315 37.98 16.7748C37.6722 16.5317 37.1243 15.5998 36.9522 15.9644C36.8791 16.1508 37.6435 17.026 37.9644 17.2812Z" fill="#002638"/>
<path d="M16.3661 22.7662C16.5592 22.5752 16.1861 21.8114 16.126 21.6242C16.0191 21.2973 15.9878 20.82 15.8077 20.5739C15.5738 20.3361 15.3072 20.1698 15.0249 20.0856C14.9166 20.039 14.8058 20.0046 14.6936 19.9827C14.5018 19.9439 14.3251 19.8144 14.1926 19.6155C13.8455 19.0867 13.2793 18.5139 13.1019 18.6681C12.8201 18.9142 13.1984 19.1051 13.3289 19.1712C13.5898 19.2997 14.0673 19.9056 14.3726 20.192C14.4057 20.2262 14.4416 20.2546 14.4796 20.2765C14.6492 20.3867 14.8971 20.4821 14.9597 20.5152C15.2184 20.5892 15.4492 20.7927 15.6094 21.088C15.766 21.4699 16.1574 22.9718 16.3661 22.7662Z" fill="#002638"/>
<path d="M0.630688 26.0456C0.845213 25.8789 1.02266 25.629 1.23454 25.4457C1.35305 25.3821 1.47431 25.332 1.59738 25.2957C1.66876 25.2454 1.73628 25.1825 1.79866 25.1082C2.31598 24.6694 2.79642 24.1306 3.22883 23.5043C3.46118 23.1728 3.70907 22.8692 3.9704 22.5962C4.19043 22.424 4.39448 22.2053 4.5769 21.9463C4.92914 21.3547 5.38997 21.0131 5.75811 20.4299C6.12625 19.8466 6.4626 19.0759 6.83074 18.4219C7.0055 18.0726 7.24993 17.8261 7.52463 17.722C7.66765 17.6428 7.82126 17.5095 7.97752 17.4054C8.13378 17.3012 8.31652 17.4387 8.26885 17.7095C8.21853 17.9606 8.11709 18.1787 7.98017 18.3302C7.76763 18.5133 7.57894 18.7579 7.42399 19.0509C7.28362 19.3009 7.33924 19.605 7.29422 19.9133C7.2333 20.3299 7.0691 20.6923 7.1565 21.1381C7.43723 21.2464 7.47166 20.6257 7.52198 20.3424C7.59349 19.9258 7.60144 19.6633 7.83185 19.4259C8.06227 19.1884 8.33771 18.4302 8.58667 17.9136C8.79347 17.6113 9.01387 17.3329 9.24613 17.0804C9.33703 17.0028 9.42079 16.9061 9.49509 16.793C9.57984 16.6138 9.52422 16.5014 9.57454 16.3389C9.69056 16.0702 9.81798 15.8141 9.95592 15.5724C10.0195 15.4266 10.0566 15.2099 10.1122 15.0891C10.1986 14.9307 10.3074 14.8066 10.43 14.7267C10.7213 14.4809 11.0391 14.3559 11.2563 13.9393C11.4311 13.6102 11.5 13.1436 11.786 13.0811C12.1414 13.0978 12.4839 13.2935 12.7633 13.6394C13.088 14.0189 13.4445 14.3259 13.8227 14.5517C14.9191 15.1016 15.6104 15.8848 16.4049 16.2431C16.6698 16.3639 17.0882 16.5472 17.361 16.6305C17.5861 16.6972 17.8113 16.6305 18.039 16.7055C18.5899 16.8471 19.0031 17.7387 19.5036 18.1178C19.6758 18.2511 19.7446 18.1761 19.7208 18.4844C19.6807 18.6725 19.6178 18.8465 19.5354 18.9968C19.3924 19.3176 19.2202 19.5967 19.0719 19.9091C18.7594 19.3009 18.2006 18.9426 17.7795 18.5427C17.3584 18.1428 17.067 17.6803 16.7016 17.2929C16.3361 16.9055 15.7243 16.7847 15.3773 16.3306C14.5192 15.2474 13.6955 14.6975 14.4927 15.7265C14.7205 16.0223 14.8715 16.2889 15.0648 16.5305C15.4581 16.9254 15.8783 17.2496 16.3175 17.497C16.683 17.7803 16.7942 18.5219 17.1333 18.7468C17.2577 18.8054 17.379 18.8792 17.4961 18.9676C17.6762 19.1343 17.8748 19.2176 18.0576 19.3842C18.2791 19.5437 18.4707 19.7905 18.6137 20.1008C18.7091 20.359 18.7409 20.6548 18.8495 20.9131C18.958 21.1714 19.1143 21.413 19.2361 21.7005C19.3173 21.9777 19.413 22.2438 19.5222 22.4962C19.7963 22.8813 20.0996 23.2115 20.4253 23.4794C20.6345 23.7001 21.9746 25.0458 22.0144 24.6125C22.0329 24.4625 21.4132 24.1084 21.347 23.9959C21.2807 23.8834 21.1086 23.696 21.053 23.6002C20.9228 23.3636 20.7621 23.1734 20.5816 23.0419C20.3167 22.8461 20.0836 22.9003 19.9009 22.4879C19.8174 22.2924 19.7431 22.0878 19.6784 21.8755C19.6652 21.835 19.6602 21.7892 19.6641 21.7441C19.6681 21.6991 19.6808 21.657 19.7005 21.6238C19.7202 21.5905 19.7459 21.5676 19.7742 21.5582C19.8025 21.5488 19.8319 21.5534 19.8585 21.5713C20.0572 21.7047 20.2558 21.838 20.465 21.9421C20.7725 22.0346 21.0674 22.2108 21.3364 22.4629C21.5747 22.767 21.6409 23.296 21.8793 23.6043C22.1812 24.0209 22.4328 23.9418 22.2607 23.4377C22.1786 23.2044 22.0567 23.0711 21.9958 22.8545C21.9915 22.8389 21.9903 22.8216 21.9925 22.8049C21.9946 22.7883 21.9999 22.773 22.0077 22.7612C22.0154 22.7495 22.0253 22.7417 22.036 22.739C22.0467 22.7363 22.0576 22.7388 22.0673 22.7461C22.3576 22.9348 22.6569 23.0867 22.9625 23.2002C23.3042 23.3669 23.5928 23.6793 23.9213 23.8918C24.236 24.0318 24.5309 24.2651 24.79 24.5792C25.0631 24.9211 25.3497 25.2356 25.6481 25.5207C25.767 25.6245 25.8789 25.7473 25.9818 25.8873C26.0261 25.9391 26.0685 25.9947 26.1089 26.0539C26.2295 26.2368 26.3578 26.4066 26.4929 26.5622L27.1418 27.4578C27.1998 27.5277 27.2669 27.5766 27.3383 27.6011C27.4097 27.6256 27.4837 27.625 27.5549 27.5995C27.9118 27.3504 28.2179 26.951 28.4395 26.4455C28.4793 26.3497 28.85 25.729 28.9295 25.6123C29.1788 25.3435 29.445 25.1159 29.724 24.9333C29.8671 24.8041 30.2829 24.4209 29.9703 24.2251C29.7585 24.0917 29.4221 24.5333 29.2367 24.6833C28.9909 24.8339 28.7674 25.0621 28.5799 25.354C28.3601 25.7706 28.2939 26.308 27.9416 26.4788C27.7553 26.596 27.5642 26.6934 27.3696 26.7705C27.3182 26.7783 27.2665 26.7681 27.2179 26.7408C27.1694 26.7134 27.1253 26.6695 27.0888 26.6122C26.967 26.3997 26.4929 25.7581 26.5591 25.5415C26.6677 25.1541 27.1312 24.7875 27.2848 24.4667C27.396 24.2334 27.4013 24.1459 27.5497 24.0126C27.7456 23.8936 27.9502 23.8138 28.1588 23.7751C28.2753 23.7335 29.0328 23.4169 29.4248 23.1752C29.6896 23.0044 29.581 23.4918 28.9295 23.8251C28.6779 23.9543 28.5349 24.3875 28.3415 24.6583C28.0629 25.0401 27.7623 25.3803 27.4437 25.6748C27.2689 25.8456 27.0517 26.333 27.4172 26.3247C27.5973 26.3247 27.8781 25.9081 28.0343 25.7623C28.2879 25.5376 28.5198 25.257 28.7229 24.9291C28.914 24.6094 29.1303 24.3294 29.3665 24.0959C29.5837 23.9001 29.7903 23.8668 29.875 23.4794C29.9598 23.0919 29.928 22.9753 30.1822 22.7253C30.3794 22.5318 30.5577 22.2947 30.7119 22.0213C30.8311 21.8296 31.2284 21.738 31.2893 21.5755C31.3846 21.3006 31.141 21.1589 30.9979 21.1589C30.7331 21.1214 30.598 21.3964 30.4259 21.6422C30.2397 21.8748 30.0432 22.0864 29.8379 22.2754C29.6918 22.4315 29.5356 22.5628 29.3718 22.667C28.7944 22.9919 27.6423 23.2919 27.0676 24.0043C26.8531 24.275 26.6968 24.8833 26.4373 25.0791C26.236 25.2291 25.9791 24.9124 25.7778 24.6625C25.7567 24.6351 25.7398 24.6008 25.7281 24.5619C25.7164 24.523 25.7104 24.4805 25.7104 24.4375C25.7104 24.3945 25.7164 24.3521 25.7281 24.3132C25.7398 24.2743 25.7567 24.2399 25.7778 24.2126C26.033 23.8942 26.307 23.6151 26.5962 23.3794C26.8796 23.1336 27.2769 23.2919 27.5285 22.9836C27.6582 22.8253 27.7245 22.567 27.8675 22.4129C28.0105 22.2587 28.2144 22.0754 28.3972 21.8963C28.697 21.6195 29.0222 21.4172 29.3612 21.2964C29.4388 21.258 29.522 21.258 29.5996 21.2964C29.6642 21.3141 29.7299 21.3211 29.7955 21.3172C29.9809 21.2756 30.0816 21.0089 30.1955 20.8215C30.3502 20.5452 30.5424 20.327 30.7578 20.1828C30.9732 20.0387 31.2064 19.9722 31.4402 19.9883C31.6627 20.083 31.8764 20.2231 32.0759 20.4049C32.3805 20.6076 32.6775 20.8371 32.9658 21.0923C33.0823 21.1922 33.9166 21.9254 34.0251 22.0629C35.3229 23.5252 35.4421 23.9501 37.3966 25.1207C38.0005 25.4832 38.7209 26.3039 38.8692 26.1831C38.9804 26.0997 38.8056 25.654 38.5911 25.5373C38.5355 25.504 36.5783 23.9459 36.3028 23.7876C36.0962 23.671 34.9415 22.342 34.8515 22.2629C34.6275 22.0612 34.4109 21.84 34.2026 21.6005C33.7871 21.1327 33.3497 20.7149 32.8942 20.3507C32.5499 20.1133 32.1951 19.7883 31.9699 19.63C31.8379 19.4944 31.6884 19.4068 31.5321 19.3736C31.3759 19.3405 31.2169 19.3626 31.0668 19.4384C30.8191 19.5534 30.5847 19.7307 30.3729 19.9633C30.1716 20.2049 30.0021 20.5132 29.7982 20.7548C29.5519 21.0506 29.4142 20.9881 29.1202 21.0006C28.9401 21.0006 28.5402 21.3505 28.5402 21.2422C28.5402 21.0298 29.046 20.5299 29.1493 20.4507C29.338 20.3355 29.5114 20.166 29.6605 19.9508C29.7892 19.603 29.8889 19.2305 29.9571 18.8426C30.063 18.4719 30.6245 17.3179 30.3385 17.0304C30.116 16.8055 30.0736 17.2471 29.9809 17.5095C29.8565 17.872 29.7161 18.2302 29.5996 18.5927C29.5198 18.9416 29.4004 19.2648 29.2473 19.5467C29.0538 19.7093 28.841 19.8072 28.6223 19.8341C28.2859 19.9508 27.7668 20.0341 27.4914 20.1841C27.0174 20.4304 26.5784 20.8195 26.1989 21.3297C26.0692 21.5672 25.9156 21.7713 25.7884 22.0171C25.7326 22.1055 25.6869 22.2084 25.6534 22.3212C25.6444 22.3785 25.6481 22.4389 25.6636 22.4925C25.6792 22.5462 25.7058 22.59 25.7392 22.617C25.7725 22.644 25.8107 22.6525 25.8475 22.6411C25.8843 22.6298 25.9176 22.5993 25.942 22.5545C26.1157 22.2071 26.3061 21.8812 26.5115 21.5797C26.7907 21.1876 27.1128 20.8785 27.4623 20.6673C27.6609 20.5798 27.939 20.6382 28.0423 20.5715C28.074 20.5715 28.911 20.0258 28.5958 20.4299C28.2207 20.9059 27.8931 21.4676 27.6238 22.0963C27.4437 22.3129 27.3854 22.4879 27.1603 22.6003C26.9352 22.7128 26.7419 22.6003 26.5459 22.7378C26.1795 23.0025 25.841 23.3537 25.5421 23.7793C25.121 24.4042 24.6522 23.696 24.2338 23.3627C23.9133 23.0919 24.0828 23.0003 24.0961 22.467C24.149 20.6048 24.9515 21.1756 25.807 20.1591C25.9341 20.0091 26.1036 19.7425 25.8652 19.6008C25.7487 19.5342 25.4918 19.9924 25.3541 20.0924C25.1013 20.2946 24.8347 20.4511 24.5595 20.559C24.3821 20.6298 24.1384 20.7132 24.0298 20.9756C23.8577 21.4339 23.9001 22.7628 23.5002 22.9294C23.2512 23.0294 22.9148 22.592 22.7056 22.4837C22.4408 22.3504 22.1759 22.4837 21.9111 22.2671C21.5959 22.0129 21.5429 21.7338 21.0053 21.6922C20.8006 21.664 20.6024 21.5643 20.4253 21.4005C20.3458 21.3339 20.1128 21.2922 20.0201 21.1464C19.8824 20.9215 19.9062 20.9756 20.1048 20.7715C20.3458 20.5215 20.714 20.3757 20.9153 20.0508C21.1165 19.7258 21.1086 19.2759 21.2251 18.9343C21.3734 18.5177 21.6436 18.3219 21.8104 17.9386C22.0753 17.3346 21.3231 17.8803 21.2092 18.0053C20.8808 18.3636 20.7484 19.2551 20.4703 19.7217C20.3167 19.9841 19.5619 20.784 19.4268 20.6965C19.1805 20.5424 19.3527 20.2799 19.456 20.1341C19.6045 19.9051 19.7224 19.6317 19.8029 19.3301C20.0133 18.7821 20.317 18.3377 20.6795 18.0469C20.8676 17.8678 20.9709 17.5595 21.143 17.3429C21.3152 17.1263 21.5112 17.0263 21.6727 16.8221C21.7601 16.7138 21.8025 16.518 21.8846 16.4056C22.0238 16.2807 22.1764 16.1974 22.3348 16.1598C22.7745 15.9556 23.7729 15.7057 24.1464 15.2641C24.4562 14.8975 24.639 14.3642 24.978 14.0518C25.1707 13.8274 25.3818 13.6452 25.6057 13.5102C25.8043 13.4269 26.5671 13.1561 26.7074 13.0603C26.7895 13.002 27.7271 12.1271 27.7668 12.3854C27.796 12.5604 27.6741 12.802 27.6265 12.9561C27.5601 13.1347 27.4848 13.3046 27.4013 13.4644C27.0517 13.981 26.6783 14.7142 26.7737 14.8225C26.869 14.9308 27.2398 14.5225 27.5523 13.8935C27.8653 13.4511 28.1044 12.8946 28.2488 12.2729C28.3892 11.8563 28.4978 11.773 28.8712 11.4397C29.1036 11.2455 29.3499 11.0958 29.6049 10.994C30.3597 10.669 31.2284 9.36924 31.0748 9.22344C30.9211 9.07763 30.1213 10.1274 29.8008 10.2858C29.675 10.3563 29.5456 10.4106 29.4142 10.4482C29.0997 10.5375 28.7965 10.7063 28.5163 10.9481C28.3733 11.0523 28.0211 11.3647 27.8013 11.5314C27.3159 11.9392 26.8111 12.2874 26.2916 12.5729C25.9482 12.692 25.6123 12.8593 25.2879 13.0728C24.9419 13.3205 24.6256 13.6601 24.353 14.0768C24.0643 14.5767 23.9742 14.9391 22.9519 15.3266C22.6871 15.4224 22.4222 15.5515 22.1839 15.6807C22.0382 15.7557 21.4344 16.2472 22.1335 15.4515C22.3216 15.2391 22.8433 14.6683 22.8963 14.3101C22.9578 14.0132 23.0471 13.7324 23.1611 13.4769C23.5637 12.9853 23.9213 12.3021 24.3662 11.9146C24.5728 11.7355 25.513 9.92332 25.6428 9.80667C25.8695 9.63755 26.0835 9.42937 26.281 9.18594C26.422 8.91282 26.5829 8.66673 26.7604 8.45273C27.1736 8.06947 27.4967 7.51539 27.9866 7.39458C28.1295 7.37399 28.2673 7.30015 28.3884 7.17916C28.5095 7.05817 28.6106 6.89353 28.6832 6.69886C28.8024 6.35726 28.9825 6.13646 29.099 5.78235C29.2553 5.2991 29.4062 5.24494 29.7161 5.03665C29.9667 4.85255 30.198 4.60953 30.402 4.31593C30.8443 3.74936 31.0377 4.10347 31.5806 4.04515C32.1977 3.97433 32.6162 4.87834 33.1856 5.14496C33.3974 5.21113 33.6017 5.32625 33.7921 5.48657C34.0042 5.69004 34.2093 5.91115 34.4065 6.14896C34.624 6.38807 34.8504 6.60648 35.0845 6.80301C35.2776 7.03029 35.4559 7.28706 35.6169 7.56955C36.0909 8.17361 36.5412 9.0693 37.0444 9.62337C37.2933 9.90249 37.5741 10.0941 37.8204 10.3774C37.9359 10.5053 38.0393 10.6581 38.1276 10.8315C38.4851 11.5522 39.579 13.6727 39.6982 13.8976C39.8173 14.1226 40.5907 15.889 40.8237 16.443C41.0568 16.9971 41.5494 17.2762 41.8593 17.6928C42.05 17.972 42.8684 19.2592 42.9452 18.6968C42.9769 18.4552 42.3095 18.0136 41.8116 17.2387C41.4361 16.696 41.0823 16.1172 40.7522 15.5057C40.4026 14.6725 40.1934 13.6144 39.2479 12.1729C39.1234 11.9813 39.0095 11.4647 39.1685 11.5689C39.2384 11.6132 39.3044 11.6721 39.3644 11.7438C40.5139 13.1644 41.2925 13.2311 41.907 13.606C42.3099 13.8067 42.7008 14.0633 43.0749 14.3726C43.2736 14.585 44.2217 15.7223 44.4415 15.8556C44.8256 16.0931 44.8759 16.843 45.1381 16.6888C45.4003 16.5347 42.9769 13.706 42.7545 13.5227C42.4537 13.2271 42.1319 12.988 41.7957 12.8103C41.392 12.6946 40.9931 12.5402 40.6013 12.3479C40.4794 12.2688 39.8067 11.5397 39.6902 11.4397C39.4835 11.2395 39.2596 11.0866 39.0254 10.9856C38.9169 10.9856 38.0958 9.84 37.8575 9.54422C37.7462 9.40257 36.1836 7.81534 35.9241 7.35709C35.8114 7.09386 35.6728 6.86044 35.5136 6.66554L34.915 6.01981C34.535 5.58058 34.1388 5.17717 33.7285 4.81168C33.3657 4.5159 32.8837 4.45758 32.5552 4.04098C32.4195 3.80955 32.2479 3.63733 32.0573 3.54107C31.8521 3.45186 31.6419 3.39328 31.4296 3.3661C31.0167 3.28841 30.5983 3.39979 30.2246 3.68687C29.8988 4.00349 29.6155 4.31593 29.3029 4.66588C29.0831 4.91167 28.5984 5.44491 28.3177 5.23661C28.1323 5.09914 27.9814 4.5284 27.8701 4.27428C27.7621 4.01629 27.6258 3.79059 27.4675 3.60772C27.1342 3.31664 26.778 3.09536 26.4082 2.9495C26.1835 2.79456 25.9432 2.7029 25.6984 2.67871C25.5447 2.66962 25.3985 2.57173 25.2879 2.40376C25.0786 2.06215 24.9118 1.57057 24.639 1.33727C24.2271 1.02961 23.8034 0.762477 23.3704 0.537409C22.9758 0.299949 22.6394 0 22.1892 0C21.9729 0.00400634 21.7602 0.0861034 21.5673 0.239956C21.3744 0.393809 21.2066 0.615304 21.0768 0.88735C20.9137 1.2427 20.7087 1.54537 20.473 1.77886C19.6652 2.67919 18.9359 3.74224 18.3039 4.94083C17.8384 5.89226 17.3131 6.76739 16.736 7.55289C16.593 7.74035 16.3573 7.96948 16.2963 8.0403C15.7642 8.62363 15.1877 9.0995 14.5801 9.45673C14.3419 9.54396 14.1232 9.73112 13.9472 9.9983C13.8598 10.1941 13.8571 10.4566 13.7697 10.6649C13.6701 10.8639 13.5554 11.043 13.4281 11.1981C13.1897 11.523 12.8984 11.748 12.6732 12.0896C12.4481 12.4312 12.4243 12.6145 12.0879 12.4396C11.6324 12.2021 11.3543 12.5687 11.0815 13.1144C10.8749 13.531 10.9411 13.6643 10.6074 13.8976C10.3876 14.0518 10.1095 14.1643 9.97976 14.51C9.9003 14.7183 9.9056 14.9266 9.78907 15.1141C9.67254 15.3016 9.59308 15.2682 9.52422 15.3807C9.35472 15.6223 9.3918 16.0681 9.21435 16.2931C9.0369 16.518 8.59991 16.5055 8.36419 16.6138C8.06757 16.7555 7.77624 16.943 7.48226 17.1054C7.18142 17.2608 6.90886 17.528 6.68772 17.8845C6.51027 18.1803 6.31694 18.4594 6.15803 18.7718C6.02036 19.0911 5.87183 19.3984 5.71309 19.6925C5.5171 19.9924 5.35554 20.3507 5.14632 20.6257C4.93709 20.9006 4.66165 21.1131 4.45242 21.4339C4.2716 21.693 4.06828 21.9104 3.84857 22.0796C3.59378 22.3088 3.35267 22.5737 3.12819 22.8711C2.9427 23.185 2.74642 23.4826 2.54023 23.7626C2.00621 24.3173 1.44366 24.8009 0.858455 25.2082C0.726032 25.3082 0.0162444 25.7415 0.000353589 25.9664C-0.0155372 26.1914 0.508859 26.1372 0.630688 26.0456ZM16.9187 8.09446C17.8483 6.91133 18.3304 5.59488 18.9369 4.66588C19.1408 4.35759 19.3606 4.06598 19.5619 3.74936C19.7028 3.47823 19.8531 3.21955 20.0121 2.9745C20.2716 2.72876 20.5178 2.4501 20.7484 2.1413C20.9258 1.82469 20.9232 1.83719 20.9258 1.83719C21.0397 1.80386 20.8199 2.44542 20.7669 2.53707C20.6478 2.7412 20.6372 2.95367 20.5021 3.13697C20.412 3.27028 20.4015 3.47441 20.277 3.71604C20.0777 4.39557 19.9009 5.09082 19.7473 5.79902C19.7175 5.91767 19.6812 6.03198 19.6387 6.14063C19.5238 6.33675 19.3774 6.48065 19.2149 6.55722C19.162 6.59055 19.109 6.62388 19.0613 6.66137C18.5316 7.0488 18.2668 7.55705 17.9596 8.42774L17.9384 8.48606L17.9755 8.51939C17.9944 8.53857 18.0165 8.5487 18.039 8.54855C18.1609 8.54855 18.2536 8.26527 18.3357 8.01531C18.3544 7.95218 18.3756 7.89096 18.3992 7.83201C18.4862 7.61742 18.5965 7.42849 18.725 7.27377C18.8897 7.10031 19.0676 6.96033 19.2547 6.85717C19.4157 6.76482 19.5708 6.64906 19.7182 6.5114C19.8456 6.38045 19.9395 6.18266 19.983 5.95316L20.0201 5.76152C20.0677 5.52406 20.2584 4.64921 20.3723 4.07014C20.416 3.84377 20.4995 3.64153 20.6133 3.48691C20.7323 3.32698 20.8365 3.14192 20.9232 2.937C20.9883 2.72139 21.078 2.5265 21.188 2.3621C21.2993 2.16213 21.6039 0.954005 21.7177 0.82486C21.8899 0.64989 22.1812 0.162472 22.5123 0.45409C22.6871 0.604064 22.7771 0.870686 22.9969 0.870686C23.2936 0.870686 23.7571 0.899847 23.614 1.24562C23.471 1.5914 23.0685 1.53724 23.1373 1.74137C23.2062 1.9455 23.667 1.59973 23.7756 1.49975C24.0404 1.23729 24.2523 1.42059 24.5198 1.63722C24.7573 1.86727 24.9548 2.18649 25.0945 2.56623C25.2137 2.82452 25.3779 3.51607 25.6587 3.49107C25.7169 3.49107 25.6586 3.37859 25.6772 3.29111C25.7063 3.02865 26.3022 3.7077 26.6836 3.63688C26.9689 3.71614 27.2347 3.91799 27.4517 4.22012C27.6768 4.63671 28.0555 5.1033 28.1297 5.66571C28.1747 6.01565 28.1853 6.0823 28.0979 6.33226C28.0105 6.58222 27.9972 6.74886 27.5867 7.01964C27.5583 7.03752 27.5267 7.03896 27.4976 7.02371C27.4685 7.00846 27.4438 6.9775 27.4278 6.93632C27.3219 6.64471 27.1789 6.19478 27.0385 5.73236C26.8981 5.26994 26.922 5.17412 26.5088 4.78252L26.4717 4.74503C26.1539 4.41943 25.8147 4.14847 25.46 3.93683C25.4473 3.93525 25.4345 3.94004 25.4236 3.95051C25.4126 3.96098 25.4041 3.9766 25.3991 3.99516C25.3488 4.22012 25.5103 4.35759 25.6401 4.46591L25.7169 4.53673C25.7968 4.60845 25.8811 4.66708 25.9685 4.7117C26.0321 4.75336 26.1009 4.79085 26.1566 4.83668C26.3146 4.97819 26.4668 5.13543 26.6121 5.30743C26.6386 5.34076 26.6704 5.36576 26.6916 5.39908C26.9138 5.87623 27.0772 6.41457 27.1736 6.98632C27.1895 7.14462 27.2265 7.26543 27.1524 7.40291C26.9538 7.67981 26.7432 7.93455 26.522 8.16528C26.3923 8.34858 26.2572 8.51939 26.1115 8.68603C26.0839 8.71971 26.0508 8.74077 26.016 8.74689C25.9813 8.75301 25.9461 8.74396 25.9144 8.72073C25.8826 8.6975 25.8556 8.66098 25.8362 8.61518C25.8168 8.56938 25.8057 8.51606 25.8043 8.46107C25.8025 8.30542 25.7827 8.15158 25.746 8.00698C25.6454 7.69869 25.1263 6.94049 25.1078 7.11546C25.0707 7.48206 25.2852 7.44874 25.4997 8.01947C25.5659 8.28473 25.5982 8.5678 25.5951 8.85267C25.6216 9.54005 24.9621 10.0775 24.8641 10.0358C24.7158 9.97331 24.7396 8.60271 24.8376 8.16112C24.8827 7.95698 24.9621 7.8445 24.9515 7.58205C24.9464 7.42523 24.9464 7.26811 24.9515 7.11129C24.9691 6.83351 24.9629 6.55327 24.933 6.2781C24.8612 5.96879 24.7224 5.70917 24.541 5.54489C24.4732 5.46965 24.4086 5.38754 24.3477 5.2991C24.2369 5.11201 24.1473 4.89642 24.0828 4.66171C24.0113 4.43675 23.9557 4.24511 23.8471 4.24511C23.8288 4.24312 23.8106 4.25117 23.7956 4.26787C23.7807 4.28458 23.7698 4.30892 23.765 4.33676C23.712 4.57839 24.0298 5.29077 24.6522 6.00315C24.8138 6.19478 24.7847 7.18212 24.737 7.54455C24.7 7.72769 24.6484 7.90268 24.5834 8.0653C24.4748 8.64912 24.4291 9.25744 24.4483 9.86499C24.4737 10.0402 24.4726 10.2224 24.445 10.3968C24.4174 10.5712 24.3641 10.733 24.2894 10.869L23.5425 12.0813C23.5177 12.1185 23.4872 12.145 23.454 12.1582C23.4208 12.1714 23.3859 12.1709 23.3528 12.1566C23.3198 12.1423 23.2896 12.1149 23.2653 12.0768C23.241 12.0388 23.2234 11.9916 23.2141 11.9396C23.1644 11.6036 23.0745 11.2856 22.9493 11.0023C22.7893 10.7328 22.6415 10.446 22.507 10.1441C22.4461 9.96081 22.4884 9.85666 22.3931 9.70669C22.2978 9.55671 22.2183 9.51505 22.213 9.70669C22.213 10.0941 22.5043 10.7773 22.6473 11.044C22.8326 11.3848 22.956 11.7978 23.0049 12.2396C23.0477 12.4619 23.0524 12.6981 23.0185 12.9242C22.9845 13.1503 22.9131 13.3582 22.8116 13.5269C22.7073 13.6899 22.6091 13.8624 22.5176 14.0435C22.4762 14.2184 22.4267 14.3883 22.3693 14.5517C22.1918 14.9058 21.9084 15.1683 21.7124 15.5099C21.6409 15.6307 21.2966 16.1389 21.1324 16.4764C21.0922 16.5586 21.0439 16.6303 20.9894 16.6888C20.8596 16.8263 20.7405 16.9805 20.6054 17.1054C20.5027 17.189 20.4028 17.2808 20.3061 17.3804C20.2134 17.497 20.171 17.6678 20.0889 17.797C20.0136 17.9065 19.9148 17.9673 19.8122 17.9673C19.7096 17.9673 19.6108 17.9065 19.5354 17.797C19.3209 17.5137 19.1169 17.1804 18.8839 16.9096C18.6802 16.6887 18.4595 16.5096 18.2271 16.3764C18.2081 16.3641 18.1913 16.3448 18.1781 16.3201C18.1649 16.2954 18.1556 16.266 18.1512 16.2345C18.1468 16.203 18.1473 16.1703 18.1527 16.1391C18.158 16.108 18.1681 16.0793 18.182 16.0556C18.5581 15.4016 19.019 14.8392 19.3235 14.1101C19.6625 13.3102 19.6387 12.4437 19.9539 11.6105C20.1307 11.2489 20.3199 10.9026 20.5206 10.5732C20.5577 10.5087 20.586 10.4329 20.6038 10.3505C20.6216 10.2681 20.6284 10.1808 20.6239 10.0941C20.5948 9.84833 20.4438 10.0941 20.3988 10.1566C20.2823 10.2816 20.1922 10.5732 20.0942 10.7357C19.9896 10.8884 19.8971 11.0604 19.8188 11.2481C19.6557 11.6667 19.5224 12.1124 19.4215 12.577C19.3656 13.0396 19.2656 13.4862 19.1249 13.9018C18.9213 14.2878 18.6903 14.6359 18.4363 14.9391C18.2138 15.2557 18.1556 15.6473 17.9225 15.9348C17.6894 16.2222 17.4272 16.1598 17.128 16.0264C16.5691 15.7807 16.0686 15.3641 15.4992 15.0724C15.0065 14.81 14.5272 14.5392 14.0293 14.2851C13.8003 14.1093 13.5888 13.8819 13.4016 13.6102C13.3875 13.5885 13.3769 13.562 13.3705 13.5327C13.3641 13.5034 13.3621 13.4722 13.3646 13.4415C13.3672 13.4108 13.3743 13.3815 13.3853 13.3558C13.3963 13.3301 13.4109 13.3088 13.4281 13.2936C13.6969 12.9663 13.9436 12.5963 14.1643 12.1896C14.4376 11.8573 14.658 11.4294 14.8079 10.9398C14.991 10.3994 15.2523 9.93414 15.5707 9.58171C15.7322 9.34008 16.7519 8.33192 16.9187 8.09446ZM13.3857 11.7355C13.676 11.4757 13.9124 11.0894 14.0663 10.6232C14.1156 10.4038 14.1987 10.207 14.3083 10.0507C14.4178 9.89435 14.5504 9.7833 14.694 9.72752C14.8582 9.6192 15.6687 8.94432 15.6157 9.14428C15.523 9.47756 14.9906 9.68586 14.7708 10.1733C14.5934 10.569 14.506 10.894 14.3312 11.3022C14.0828 11.8237 13.7946 12.2952 13.4731 12.7062C13.2427 13.0645 12.9831 13.4436 12.7818 12.8645C12.615 12.4187 13.1764 11.9688 13.3857 11.7355Z" fill="#002638"/>
<path d="M46.373 19.7764C46.4688 20.1628 46.7122 20.356 46.9556 20.5762C47.199 20.7964 47.634 21.2176 47.9913 21.5229C48.2629 21.8655 48.556 22.1683 48.8665 22.427C49.1255 22.5584 49.5993 23.2191 49.9023 23.5012C49.9363 23.5343 49.9718 23.564 50.0084 23.5901C50.1767 23.706 50.4227 23.8065 50.4849 23.8412C50.7414 23.9175 50.9705 24.1303 51.1296 24.4402C51.3031 24.8536 51.6915 26.434 51.9064 26.2176C52.1213 26.0012 51.9064 25.2129 51.8417 25.0159C51.7161 24.6107 51.5483 24.2377 51.3445 23.9108C51.1781 23.6667 50.9733 23.4888 50.749 23.393C50.585 23.2452 50.4115 23.1223 50.2311 23.0259C49.9239 22.8793 49.6389 22.6443 49.3922 22.3343C48.9209 21.6195 48.7319 21.6001 47.7609 20.8428L47.3259 20.4835C47.0589 20.3043 46.8212 20.0406 46.6293 19.7107C46.5594 19.5638 46.5076 19.4016 46.4429 19.2509C46.3471 19.0268 45.9794 18.4781 45.8603 18.6906C45.7412 18.9031 46.2306 19.1852 46.373 19.7764Z" fill="#002638"/>
</svg>
