<svg width="24" height="24" viewBox="0 0 24 24" fill="none" xmlns="http://www.w3.org/2000/svg">
<path d="M15 10.5C15 10.945 14.868 11.38 14.6208 11.75C14.3736 12.12 14.0222 12.4084 13.611 12.5787C13.1999 12.749 12.7475 12.7936 12.311 12.7068C11.8746 12.62 11.4737 12.4057 11.159 12.091C10.8443 11.7763 10.63 11.3754 10.5432 10.939C10.4564 10.5025 10.501 10.0501 10.6713 9.63896C10.8416 9.22783 11.13 8.87643 11.5 8.62919C11.87 8.38196 12.305 8.25 12.75 8.25C13.3465 8.25067 13.9184 8.48794 14.3403 8.90975C14.7621 9.33156 14.9993 9.90347 15 10.5ZM21 3.75V20.25C20.9996 20.6477 20.8414 21.029 20.5602 21.3102C20.279 21.5914 19.8977 21.7496 19.5 21.75H6C5.60231 21.7496 5.22104 21.5914 4.93983 21.3102C4.65863 21.029 4.50045 20.6477 4.5 20.25V18.375H3C2.80109 18.375 2.61032 18.296 2.46967 18.1553C2.32902 18.0147 2.25 17.8239 2.25 17.625C2.25 17.4261 2.32902 17.2353 2.46967 17.0947C2.61032 16.954 2.80109 16.875 3 16.875H4.5V14.625H3C2.80109 14.625 2.61032 14.546 2.46967 14.4053C2.32902 14.2647 2.25 14.0739 2.25 13.875C2.25 13.6761 2.32902 13.4853 2.46967 13.3447C2.61032 13.204 2.80109 13.125 3 13.125H4.5V10.875H3C2.80109 10.875 2.61032 10.796 2.46967 10.6553C2.32902 10.5147 2.25 10.3239 2.25 10.125C2.25 9.92609 2.32902 9.73532 2.46967 9.59467C2.61032 9.45402 2.80109 9.375 3 9.375H4.5V7.125H3C2.80109 7.125 2.61032 7.04598 2.46967 6.90533C2.32902 6.76468 2.25 6.57391 2.25 6.375C2.25 6.17609 2.32902 5.98532 2.46967 5.84467C2.61032 5.70402 2.80109 5.625 3 5.625H4.5V3.75C4.50045 3.35231 4.65863 2.97104 4.93983 2.68983C5.22104 2.40863 5.60231 2.25045 6 2.25H19.5C19.8977 2.25045 20.279 2.40863 20.5602 2.68983C20.8414 2.97104 20.9996 3.35231 21 3.75ZM17.8497 15.2992C17.185 14.4086 16.2985 13.7078 15.2785 13.2667C15.837 12.7568 16.2282 12.09 16.4009 11.3538C16.5736 10.6176 16.5197 9.84635 16.2462 9.14133C15.9728 8.43631 15.4926 7.83043 14.8687 7.4032C14.2447 6.97597 13.5062 6.74735 12.75 6.74735C11.9938 6.74735 11.2553 6.97597 10.6313 7.4032C10.0074 7.83043 9.5272 8.43631 9.25376 9.14133C8.98032 9.84635 8.92641 10.6176 9.0991 11.3538C9.2718 12.09 9.66304 12.7568 10.2215 13.2667C9.2014 13.7078 8.3148 14.4087 7.65009 15.2993C7.59094 15.3781 7.54787 15.4677 7.52335 15.5631C7.49884 15.6585 7.49335 15.7578 7.5072 15.8553C7.53518 16.0523 7.64025 16.23 7.7993 16.3495C7.95834 16.469 8.15833 16.5204 8.35527 16.4924C8.55221 16.4644 8.72997 16.3593 8.84944 16.2003C9.3036 15.5948 9.8925 15.1033 10.5695 14.7648C11.2465 14.4263 11.993 14.2501 12.7499 14.2501C13.5068 14.25 14.2533 14.4262 14.9303 14.7647C15.6074 15.1032 16.1963 15.5946 16.6505 16.2001C16.7093 16.2796 16.7834 16.3467 16.8683 16.3975C16.9532 16.4483 17.0473 16.4818 17.1452 16.496C17.2431 16.5103 17.3428 16.505 17.4387 16.4806C17.5346 16.4561 17.6246 16.4129 17.7037 16.3535C17.7828 16.2941 17.8494 16.2196 17.8996 16.1343C17.9498 16.049 17.9826 15.9547 17.9962 15.8567C18.0097 15.7587 18.0038 15.659 17.9787 15.5633C17.9535 15.4676 17.9097 15.3778 17.8497 15.2992Z" fill="#002638"/>
</svg>
