<svg width="21" height="20" viewBox="0 0 21 20" fill="none" xmlns="http://www.w3.org/2000/svg">
<path d="M16.3134 12.7634C16.0544 13.0144 15.9354 13.3774 15.9944 13.7334L16.8834 18.6534C16.9584 19.0704 16.7824 19.4924 16.4334 19.7334C16.0914 19.9834 15.6364 20.0134 15.2634 19.8134L10.8344 17.5034C10.6804 17.4214 10.5094 17.3774 10.3344 17.3724H10.0634C9.96941 17.3864 9.87741 17.4164 9.79341 17.4624L5.36341 19.7834C5.14441 19.8934 4.89641 19.9324 4.65341 19.8934C4.06141 19.7814 3.66641 19.2174 3.76341 18.6224L4.65341 13.7024C4.71241 13.3434 4.59341 12.9784 4.33441 12.7234L0.723407 9.22336C0.421407 8.93036 0.316407 8.49036 0.454407 8.09336C0.588407 7.69736 0.930407 7.40836 1.34341 7.34336L6.31341 6.62236C6.69141 6.58336 7.02341 6.35336 7.19341 6.01336L9.38341 1.52336C9.43541 1.42336 9.50241 1.33136 9.58341 1.25336L9.67341 1.18336C9.72041 1.13136 9.77441 1.08836 9.83441 1.05336L9.94341 1.01336L10.1134 0.943359H10.5344C10.9104 0.982359 11.2414 1.20736 11.4144 1.54336L13.6334 6.01336C13.7934 6.34036 14.1044 6.56736 14.4634 6.62236L19.4334 7.34336C19.8534 7.40336 20.2044 7.69336 20.3434 8.09336C20.4744 8.49436 20.3614 8.93436 20.0534 9.22336L16.3134 12.7634Z" fill="#002638"/>
</svg>
