<svg width="17" height="17" viewBox="0 0 17 17" fill="none" xmlns="http://www.w3.org/2000/svg">
<path d="M10.3342 8.49889L15.9277 2.91755C16.1727 2.67257 16.3103 2.3403 16.3103 1.99383C16.3103 1.64737 16.1727 1.3151 15.9277 1.07012C15.6828 0.825131 15.3505 0.6875 15.0041 0.6875C14.6577 0.6875 14.3255 0.825131 14.0805 1.07012L8.5 6.66446L2.91946 1.07012C2.67451 0.825131 2.34228 0.6875 1.99587 0.6875C1.64946 0.6875 1.31723 0.825131 1.07228 1.07012C0.827332 1.3151 0.68972 1.64737 0.68972 1.99383C0.68972 2.3403 0.827332 2.67257 1.07228 2.91755L6.66583 8.49889L1.07228 14.0802C0.950358 14.2012 0.853584 14.3451 0.787543 14.5036C0.721502 14.6621 0.6875 14.8322 0.6875 15.0039C0.6875 15.1757 0.721502 15.3457 0.787543 15.5043C0.853584 15.6628 0.950358 15.8067 1.07228 15.9277C1.19321 16.0496 1.33708 16.1464 1.4956 16.2124C1.65412 16.2785 1.82414 16.3125 1.99587 16.3125C2.16759 16.3125 2.33762 16.2785 2.49614 16.2124C2.65465 16.1464 2.79853 16.0496 2.91946 15.9277L8.5 10.3333L14.0805 15.9277C14.2015 16.0496 14.3453 16.1464 14.5039 16.2124C14.6624 16.2785 14.8324 16.3125 15.0041 16.3125C15.1759 16.3125 15.3459 16.2785 15.5044 16.2124C15.6629 16.1464 15.8068 16.0496 15.9277 15.9277C16.0496 15.8067 16.1464 15.6628 16.2125 15.5043C16.2785 15.3457 16.3125 15.1757 16.3125 15.0039C16.3125 14.8322 16.2785 14.6621 16.2125 14.5036C16.1464 14.3451 16.0496 14.2012 15.9277 14.0802L10.3342 8.49889Z" fill="#79778A"/>
</svg>
