<svg width="22" height="21" viewBox="0 0 22 21" fill="none" xmlns="http://www.w3.org/2000/svg">
<path d="M9.76226 0.490234C12.2448 0.490234 14.2695 2.48023 14.2695 4.93023V9.72023H8.16488C7.72738 9.72023 7.38145 10.0602 7.38145 10.4902C7.38145 10.9102 7.72738 11.2602 8.16488 11.2602H14.2695V16.0402C14.2695 18.4902 12.2448 20.4902 9.74191 20.4902H4.78697C2.29424 20.4902 0.269531 18.5002 0.269531 16.0502V4.94023C0.269531 2.48023 2.30442 0.490234 4.79715 0.490234H9.76226ZM16.8097 7.04043C17.1097 6.73043 17.5997 6.73043 17.8997 7.03043L20.8197 9.94043C20.9697 10.0904 21.0497 10.2804 21.0497 10.4904C21.0497 10.6904 20.9697 10.8904 20.8197 11.0304L17.8997 13.9404C17.7497 14.0904 17.5497 14.1704 17.3597 14.1704C17.1597 14.1704 16.9597 14.0904 16.8097 13.9404C16.5097 13.6404 16.5097 13.1504 16.8097 12.8504L18.4097 11.2604H14.2697V9.72043H18.4097L16.8097 8.13043C16.5097 7.83043 16.5097 7.34043 16.8097 7.04043Z" fill="#002638"/>
</svg>
