<svg width="21" height="20" viewBox="0 0 21 20" fill="none" xmlns="http://www.w3.org/2000/svg">
<path d="M7.04759 0.925936C7.67759 0.945096 8.28759 1.0551 8.87859 1.2561H8.93759C8.97759 1.2751 9.00759 1.2961 9.02759 1.3151C9.24859 1.3861 9.45759 1.4661 9.65759 1.5761L10.0376 1.7461C10.1876 1.8261 10.3676 1.9751 10.4676 2.0361C10.5676 2.0951 10.6776 2.1561 10.7676 2.2251C11.8786 1.3761 13.2276 0.916096 14.6176 0.925936C15.2486 0.925936 15.8786 1.0151 16.4776 1.2161C20.1686 2.4161 21.4986 6.4661 20.3876 10.0061C19.7576 11.8151 18.7276 13.4661 17.3786 14.8151C15.4476 16.6851 13.3286 18.3451 11.0476 19.7751L10.7976 19.9261L10.5376 19.7651C8.24859 18.3451 6.11759 16.6851 4.16859 14.8051C2.82859 13.4561 1.79759 11.8151 1.15759 10.0061C0.0275947 6.4661 1.35759 2.4161 5.08859 1.1951C5.37859 1.0951 5.67759 1.0251 5.97759 0.986096H6.09759C6.37859 0.945096 6.65759 0.925936 6.93759 0.925936H7.04759Z" fill="#002638"/>
</svg>
