<svg width="18" height="21" viewBox="0 0 18 21" fill="none" xmlns="http://www.w3.org/2000/svg">
<path d="M9.00494 0.433594C11.6849 0.433594 13.8882 2.5395 14 5.20792H13.9739C13.977 5.28548 13.9621 5.36272 13.9303 5.43359H14.0865C15.3035 5.43359 16.5778 6.2771 17.0888 8.3134L17.1444 8.55367L17.9133 14.7483C18.4666 18.6993 16.305 20.3609 13.3562 20.4313L13.1585 20.4336H4.86853C1.87178 20.4336 -0.437456 19.3416 0.0702808 15.0171L0.104905 14.7483L0.882639 8.55367C1.26614 6.36078 2.55361 5.49584 3.79412 5.43686L3.93171 5.43359H4.00989C3.9967 5.35894 3.9967 5.28257 4.00989 5.20792C4.12172 2.5395 6.325 0.433594 9.00494 0.433594ZM6.097 8.76288C5.60889 8.76288 5.21321 9.17015 5.21321 9.67253C5.21321 10.1749 5.60889 10.5822 6.097 10.5822C6.5851 10.5822 6.98079 10.1749 6.98079 9.67253L6.9739 9.55842C6.91936 9.1099 6.54755 8.76288 6.097 8.76288ZM11.8858 8.76288C11.3977 8.76288 11.002 9.17015 11.002 9.67253C11.002 10.1749 11.3977 10.5822 11.8858 10.5822C12.3739 10.5822 12.7696 10.1749 12.7696 9.67253C12.7696 9.17015 12.3739 8.76288 11.8858 8.76288ZM8.96575 1.73598C7.04164 1.73598 5.48184 3.29042 5.48184 5.20792C5.49502 5.28257 5.49502 5.35894 5.48184 5.43359H12.4932C12.4654 5.36154 12.4506 5.28512 12.4497 5.20792C12.4497 3.29042 10.8899 1.73598 8.96575 1.73598Z" fill="#002638"/>
</svg>
