<svg width="20" height="18" viewBox="0 0 20 18" fill="none" xmlns="http://www.w3.org/2000/svg">
<path d="M11.8306 16.4495C11.6811 16.4868 11.5287 16.5199 11.3774 16.5477C10.9818 16.6213 10.7204 17.0017 10.7935 17.3975C10.8297 17.5923 10.9403 17.7545 11.0904 17.8604C11.2452 17.9693 11.4422 18.0185 11.6429 17.9812C11.8231 17.9478 12.0047 17.9084 12.1829 17.864C12.5734 17.7668 12.8114 17.3711 12.7139 16.9807C12.6167 16.59 12.2214 16.3522 11.8306 16.4495Z" fill="#3453F3"/>
<path d="M17.2213 6.67791C17.2724 6.83179 17.3698 6.9574 17.493 7.0442C17.6755 7.17278 17.9144 7.21604 18.1424 7.14067C18.5246 7.01376 18.7316 6.60164 18.6052 6.21964C18.5476 6.0455 18.4837 5.87082 18.4156 5.70073C18.2661 5.32696 17.8421 5.14498 17.4681 5.29449C17.0946 5.44392 16.9125 5.86801 17.0621 6.2419C17.1193 6.38486 17.1729 6.5316 17.2213 6.67791Z" fill="#3453F3"/>
<path d="M14.1992 15.408C14.0706 15.4929 13.9379 15.575 13.8042 15.652C13.4555 15.8532 13.336 16.299 13.5371 16.6477C13.5917 16.7425 13.6644 16.82 13.7482 16.8793C13.973 17.0375 14.2784 17.0612 14.5326 16.9147C14.6916 16.823 14.8496 16.7255 15.0028 16.6243C15.3385 16.4025 15.4309 15.9502 15.209 15.6143C14.9871 15.2783 14.5351 15.186 14.1992 15.408Z" fill="#3453F3"/>
<path d="M19.0588 8.71396C19.0429 8.31166 18.704 7.99853 18.3016 8.01424C17.8997 8.0301 17.5863 8.36907 17.6021 8.77121C17.6082 8.92497 17.6097 9.08102 17.6062 9.23463C17.6005 9.48691 17.7239 9.7118 17.9157 9.84696C18.0299 9.92741 18.1686 9.97609 18.3189 9.97952C18.7212 9.98844 19.0546 9.66935 19.0635 9.26686C19.0675 9.08332 19.066 8.89737 19.0588 8.71396Z" fill="#3453F3"/>
<path d="M17.1013 13.4898C16.7787 13.2478 16.3223 13.3135 16.0807 13.6355C15.9882 13.7588 15.8908 13.8806 15.791 13.9979C15.5302 14.3042 15.5671 14.7644 15.8734 15.0253C15.8909 15.0401 15.9085 15.0537 15.9268 15.0665C16.2314 15.2812 16.6547 15.2319 16.9009 14.9429C17.0201 14.803 17.1362 14.6575 17.2468 14.5102C17.4884 14.1882 17.423 13.7315 17.1013 13.4898Z" fill="#3453F3"/>
<path d="M18.1722 10.8558C17.7881 10.7354 17.3791 10.9492 17.2587 11.3333C17.2127 11.4801 17.1616 11.6275 17.1065 11.7719C16.9855 12.0898 17.1014 12.4396 17.3673 12.627C17.416 12.6612 17.4697 12.6903 17.5281 12.7123C17.9041 12.8558 18.3253 12.6672 18.4686 12.2909C18.5341 12.1193 18.5948 11.9438 18.6497 11.7694C18.7699 11.3852 18.5563 10.9763 18.1722 10.8558Z" fill="#3453F3"/>
<path d="M8.65061 16.5533C7.99895 16.4363 7.37382 16.237 6.78105 15.9591C6.77404 15.9555 6.76776 15.9513 6.7604 15.948C6.62071 15.8822 6.48126 15.8118 6.34609 15.7382C6.34562 15.7376 6.34476 15.7373 6.34402 15.737C6.09602 15.6004 5.85399 15.4493 5.61885 15.2838C2.19014 12.8685 1.36573 8.114 3.78118 4.68533C4.30641 3.94004 4.94201 3.31827 5.65062 2.82547C5.65935 2.81939 5.66808 2.81335 5.67673 2.80723C8.17375 1.08672 11.5643 0.970766 14.2157 2.73875L13.6463 3.56156C13.488 3.79058 13.5854 3.95747 13.8625 3.93252L16.3361 3.71107C16.6137 3.68612 16.7796 3.44607 16.705 3.17808L16.0407 0.784777C15.9664 0.516472 15.776 0.484357 15.6175 0.713335L15.0467 1.53809C13.1009 0.231915 10.7671 -0.266148 8.45071 0.13553C8.2174 0.175908 7.98737 0.225328 7.7605 0.282855C7.75874 0.283167 7.75734 0.283362 7.75594 0.283674C7.74717 0.285818 7.73828 0.288663 7.72974 0.29104C5.73227 0.803991 3.9895 1.969 2.74592 3.63121C2.73544 3.64364 2.72464 3.6558 2.71474 3.66932C2.67339 3.72502 2.63235 3.782 2.59216 3.83898C2.52645 3.93237 2.46168 4.02809 2.39971 4.12381C2.39195 4.13535 2.38602 4.14708 2.37924 4.15873C1.35303 5.74896 0.858045 7.58741 0.942933 9.45907C0.943128 9.46523 0.942777 9.47143 0.942933 9.47774C0.951157 9.66057 0.965655 9.84594 0.985338 10.0284C0.98639 10.0402 0.989002 10.0513 0.990989 10.0631C1.01133 10.2466 1.03686 10.4305 1.06886 10.6144C1.39407 12.4906 2.27912 14.1789 3.60532 15.4925C3.6084 15.4956 3.6116 15.499 3.61471 15.5022C3.61581 15.5034 3.61701 15.504 3.61807 15.5051C3.97438 15.8566 4.36195 16.1816 4.77925 16.4755C5.87133 17.2451 7.0874 17.7537 8.39337 17.9881C8.78963 18.0593 9.16816 17.7955 9.23925 17.3994C9.3103 17.0031 9.04675 16.6243 8.65061 16.5533Z" fill="#3453F3"/>
<path d="M9.5509 3.17773C9.22495 3.17773 8.96094 3.44199 8.96094 3.76747V9.64285L14.3344 12.4206C14.4209 12.4654 14.5135 12.4865 14.6047 12.4865C14.8181 12.4865 15.0242 12.3703 15.129 12.1675C15.2785 11.8781 15.1654 11.5225 14.876 11.373L10.1402 8.92469V3.76747C10.1402 3.44199 9.87646 3.17773 9.5509 3.17773Z" fill="#3453F3"/>
</svg>
