<svg width="90" height="88" viewBox="0 0 90 88" fill="none" xmlns="http://www.w3.org/2000/svg">
<g opacity="0.1">
<path d="M53.1837 16.7487C46.5983 14.8642 39.6963 15.2331 33.4288 17.7516L34.1264 15.148C34.4028 14.1164 33.7907 13.0562 32.7592 12.7798C31.7278 12.5035 30.6675 13.1157 30.391 14.1471L28.5986 20.8361C28.3222 21.8675 28.9343 22.9278 29.9659 23.2042L36.6548 24.9965C37.1706 25.1347 37.6936 25.0508 38.122 24.8034C38.5505 24.5561 38.8847 24.145 39.0228 23.6293C39.2993 22.5979 38.6871 21.5376 37.6556 21.2612L36.1597 20.8604C41.2804 19.1044 46.8171 18.9493 52.1194 20.4666C58.8069 22.3803 64.4058 26.7528 67.8846 32.7783C75.2418 45.5208 70.8601 61.873 58.1176 69.2299C45.3752 76.5868 29.0229 72.2053 21.666 59.4628C18.8587 54.6005 17.6656 49.0877 18.2158 43.5205C18.7544 38.0688 20.9046 32.9914 24.4344 28.8371C25.1258 28.0233 25.0266 26.8031 24.2127 26.1115C23.399 25.4201 22.1786 25.5194 21.4871 26.3332C17.4455 31.09 14.9836 36.9018 14.3672 43.1403C13.7372 49.5169 15.103 55.8298 18.317 61.3965C22.3973 68.4638 28.9855 73.5191 36.8682 75.6313C44.7506 77.7431 52.9839 76.6593 60.0512 72.579C67.1186 68.4986 72.1739 61.9104 74.2861 54.0279C76.3982 46.1453 75.3143 37.912 71.234 30.8447C67.2509 23.9458 60.8404 18.9398 53.1837 16.7487Z" fill="#3453F3"/>
<path d="M27.571 56.0537C33.0482 65.5404 45.2223 68.8024 54.7091 63.3252C64.1958 57.848 67.4579 45.6739 61.9807 36.1872C56.5036 26.7005 44.3293 23.4382 34.8426 28.9154C25.3557 34.3927 22.0938 46.5668 27.571 56.0537ZM46.6644 47.0174C43.762 47.5569 41.9776 47.6916 40.5056 47.4819C38.6939 47.2238 37.1479 45.8641 36.4708 43.9338C35.7362 41.8397 36.1853 39.5757 37.6428 38.0256C37.663 38.0041 37.6836 37.9843 37.7038 37.9631L37.3145 37.2888C36.7806 36.364 37.0975 35.1814 38.0222 34.6475C38.947 34.1136 40.1297 34.4304 40.6636 35.3552L40.9913 35.9229C42.3186 35.5217 43.4432 35.585 43.9155 35.6411C44.9759 35.7673 45.7333 36.729 45.6073 37.7896C45.4812 38.8501 44.5195 39.6072 43.4589 39.4814C42.9513 39.4211 41.6435 39.4158 40.4601 40.6745C39.761 41.4181 40.023 42.3774 40.1199 42.6538C40.3114 43.1997 40.6856 43.6015 41.0509 43.6535C42.3235 43.8346 44.2453 43.5338 45.9574 43.2154C49.0893 42.6331 51.9269 44.2077 53.0183 47.1334C53.5541 48.5699 53.5969 50.1651 53.1386 51.6256C52.8233 52.6298 52.2943 53.5199 51.5796 54.2624L52.0425 55.0641C52.5765 55.9889 52.2596 57.1715 51.3348 57.7055C50.41 58.2394 49.2274 57.9225 48.6934 56.9977L48.3256 56.3606C47.136 56.8729 46.0083 57.0665 44.2859 56.9705C43.2197 56.911 42.4035 55.9984 42.463 54.9321C42.5223 53.8658 43.4351 53.0497 44.5013 53.1092C46.0982 53.1983 46.5767 53.0149 48.0969 52.1231C49.5938 51.2454 49.819 49.622 49.3949 48.485C49.188 47.9296 48.5071 46.6748 46.6644 47.0174Z" fill="#3453F3"/>
</g>
<path d="M80.5194 34.2156C75.7585 29.2909 69.5968 26.1594 62.9096 25.2067L64.8156 23.3007C65.5708 22.5456 65.5708 21.3214 64.8156 20.5663C64.0606 19.8112 62.8363 19.8112 62.0811 20.5663L57.1844 25.4629C56.4292 26.2179 56.4292 27.4422 57.1844 28.1974L62.081 33.094C62.4586 33.4716 62.9534 33.6604 63.4482 33.6604C63.9429 33.6604 64.4379 33.4716 64.8154 33.094C65.5705 32.339 65.5705 31.1147 64.8154 30.3595L63.7203 29.2645C69.0329 30.3041 73.9054 32.9382 77.7387 36.9033C82.5734 41.9044 85.2359 48.4904 85.2359 55.4482C85.2362 70.162 73.2654 82.1327 58.5517 82.1327C43.8379 82.1327 31.8672 70.162 31.8672 55.4483C31.8672 49.8338 33.5903 44.463 36.8503 39.9168C40.0427 35.4647 44.4435 32.1427 49.5775 30.3099C50.5832 29.9508 51.1073 28.8445 50.7483 27.8386C50.3893 26.8329 49.2828 26.3088 48.2771 26.6678C42.3986 28.7665 37.3605 32.5687 33.7075 37.6632C29.9736 42.8705 28 49.0205 28 55.4484C28 63.6091 31.1779 71.2812 36.9484 77.0517C42.7189 82.8218 50.391 85.9998 58.5517 85.9998C66.7124 85.9998 74.3845 82.8219 80.1549 77.0516C85.9254 71.2811 89.1034 63.609 89.1034 55.4483C89.1034 47.4821 86.0547 39.9415 80.5194 34.2156Z" fill="#3453F3"/>
<path d="M38.6855 55.4482C38.6855 66.4025 47.5976 75.3146 58.5521 75.3146C69.5064 75.3146 78.4184 66.4025 78.4184 55.4482C78.4184 44.4939 69.5064 35.5815 58.5521 35.5815C47.5975 35.5815 38.6855 44.4937 38.6855 55.4482ZM59.739 57.1692C56.9557 56.1853 55.3431 55.4098 54.1731 54.4921C52.7332 53.3627 52.0741 51.4123 52.4529 49.402C52.8638 47.2211 54.3847 45.485 56.422 44.8713C56.4502 44.8628 56.478 44.856 56.5061 44.8477V44.0691C56.5061 43.0013 57.3718 42.1355 58.4397 42.1355C59.5075 42.1355 60.3732 43.0013 60.3732 44.0691V44.7246C61.7233 45.0408 62.6656 45.6579 63.0465 45.9426C63.9018 46.5821 64.0769 47.7937 63.4375 48.6492C62.798 49.5046 61.5866 49.6794 60.731 49.0401C60.3216 48.7341 59.1916 48.0757 57.5374 48.574C56.5602 48.8684 56.3074 49.8302 56.2531 50.118C56.146 50.6865 56.2691 51.2216 56.5596 51.4493C57.5711 52.2424 59.3858 52.9428 61.0277 53.5231C64.0312 54.5848 65.7013 57.3672 65.1836 60.4467C64.9294 61.9586 64.1689 63.3615 63.0417 64.3971C62.2666 65.1092 61.3634 65.6155 60.3732 65.9012V66.827C60.3732 67.8949 59.5075 68.7606 58.4397 68.7606C57.3718 68.7606 56.5061 67.8949 56.5061 66.827V66.0913C55.2197 65.9401 54.1463 65.544 52.7027 64.5996C51.809 64.015 51.5585 62.8166 52.1431 61.9229C52.7277 61.0291 53.9263 60.7787 54.8198 61.3633C56.1583 62.239 56.6644 62.3194 58.4268 62.3072C60.162 62.2956 61.1687 61.0022 61.37 59.8055C61.4684 59.221 61.5062 57.7939 59.739 57.1692Z" fill="#3453F3"/>
</svg>
