<svg width="87" height="82" viewBox="0 0 87 82" fill="none" xmlns="http://www.w3.org/2000/svg">
<g opacity="0.1" clip-path="url(#clip0_5101_8837)">
<path d="M52.4688 37.6631C52.0752 36.5527 50.8257 35.8833 49.6833 36.1707L42.1224 38.0729C41.6833 38.1834 41.1367 37.9172 40.953 37.5032L36.4677 27.4002C36.3052 27.0343 35.5315 25.5719 33.5867 26.0931L24.3321 29.0098C23.1129 29.394 22.2707 30.2625 22.7218 31.9458C22.7218 31.9458 28.964 55.3999 29.1437 56.2623L30.3703 62.1504C30.534 62.9368 30.5682 64.2716 30.4449 65.0651L28.9534 74.6593C28.8549 75.2923 29.0267 75.9169 29.4248 76.373C29.8228 76.8291 30.4184 77.0839 31.0592 77.0721L32.4049 77.0471C32.6052 77.0435 32.8081 77.0143 33.0078 76.9608C34.0263 76.6879 34.8423 75.8357 35.0382 74.8401L36.6733 66.5311C36.8539 65.6133 36.9808 64.1059 36.9564 63.1708L36.7202 54.1575L43.656 60.363C44.2278 60.8746 44.9756 61.9501 45.2563 62.6644L48.4643 70.8328C48.9209 71.9956 50.2743 72.6784 51.4813 72.355L52.9189 71.9645C53.5357 71.7969 54.031 71.4002 54.3136 70.847C54.5961 70.294 54.6276 69.6602 54.4021 69.0623L50.7253 59.3139C50.3863 58.4149 49.6787 57.1013 49.1146 56.3234L41.621 45.9902L40.9433 43.5702L51.0873 40.4456C51.6536 40.2712 52.1106 39.8863 52.3741 39.3618C52.6377 38.8374 52.6738 38.241 52.4756 37.6818L52.4688 37.6631ZM51.2912 71.6456L51.2913 71.6459L51.2912 71.6456Z" fill="#3453F3"/>
<path d="M26.6202 25.5745C27.4085 25.3633 28.1519 25.02 28.8298 24.554C30.4123 23.4669 31.4765 21.8285 31.8265 19.9408C32.074 18.606 31.9416 17.26 31.4595 16.0264L33.716 15.1404C34.5023 14.8317 35.152 13.9644 35.2272 13.1231L35.4363 10.7859C35.4808 10.2867 35.3137 9.83833 34.9776 9.55568C34.6499 9.28018 34.1987 9.19267 33.7398 9.31565C33.6866 9.3299 33.6322 9.34719 33.5772 9.36771L27.0208 11.8104C25.716 11.377 24.2855 11.3144 22.8981 11.6862C22.1101 11.8973 21.3669 12.2404 20.6887 12.7063C19.1064 13.7938 18.0422 15.4322 17.6921 17.32C17.342 19.2078 17.7481 21.1188 18.8355 22.7007C20.5573 25.206 23.6857 26.3608 26.6202 25.5745Z" fill="#3453F3"/>
<path d="M58.9271 28.5645L55.6796 19.122C55.2938 18.0007 54.0483 17.3382 52.8989 17.6461L40.043 21.1149C39.4674 21.2702 38.9993 21.6405 38.7249 22.1576C38.4506 22.6745 38.406 23.2697 38.6001 23.8335L41.8477 33.2759C42.2334 34.3973 43.479 35.0598 44.6245 34.7529L57.4843 31.2831C58.0598 31.1278 58.528 30.7576 58.8024 30.2405C59.0767 29.7235 59.121 29.1282 58.9271 28.5645Z" fill="#3453F3"/>
</g>
<path d="M65.9416 42.7455C65.8488 41.571 64.8151 40.601 63.6373 40.583L55.8417 40.4635C55.3889 40.4566 54.9299 40.0579 54.8596 39.6105L53.142 28.6909C53.0797 28.2954 52.7109 26.6826 50.6975 26.6826L41.0033 27.1047C39.7262 27.1602 38.6879 27.7812 38.6879 29.5239C38.6879 29.5239 38.6471 53.7944 38.5975 54.6739L38.2583 60.6789C38.2129 61.4809 37.9005 62.779 37.576 63.5136L33.6522 72.3948C33.3932 72.9808 33.3974 73.6286 33.6639 74.1721C33.9304 74.7157 34.4398 75.1159 35.0617 75.2704L36.3681 75.5946C36.5625 75.6429 36.766 75.6673 36.9727 75.6673C38.0272 75.6673 39.0359 75.0553 39.4829 74.1444L43.2127 66.5416C43.6247 65.7019 44.1375 64.2787 44.3559 63.3691L46.4606 54.6018L51.5539 62.3909C51.9738 63.0332 52.4178 64.2655 52.504 65.0281L53.4887 73.7485C53.6287 74.9898 54.7593 75.9997 56.0088 75.9997L57.4985 75.9946C58.1377 75.9924 58.7188 75.7373 59.1349 75.2761C59.5509 74.8151 59.7454 74.211 59.6823 73.5751L58.6539 63.2073C58.5591 62.2511 58.2156 60.7992 57.8721 59.9017L53.3082 47.9812L53.28 45.4683L63.887 45.0756C64.4792 45.0538 65.0203 44.8002 65.4105 44.3618C65.8008 43.9235 65.9901 43.3567 65.9434 42.7653L65.9416 42.7455ZM56.0088 75.2653V75.2656V75.2653Z" fill="#3453F3"/>
<path d="M44.1018 24.3784C44.9179 24.3784 45.7249 24.2393 46.5003 23.9645C48.3102 23.3241 49.7622 22.017 50.5889 20.2841C51.1734 19.0589 51.3939 17.7245 51.2475 16.4082L53.6564 16.1364C54.4958 16.0417 55.3478 15.3721 55.6383 14.579L56.4451 12.3755C56.6173 11.9048 56.5719 11.4285 56.3204 11.0685C56.0752 10.7175 55.6621 10.5162 55.1869 10.5162C55.1319 10.5162 55.0749 10.5189 55.0165 10.5245L48.0512 11.187C46.903 10.4306 45.5375 10 44.1011 10C43.2853 10 42.4787 10.139 41.703 10.4135C39.8932 11.0544 38.4412 12.3616 37.6144 14.0945C36.7876 15.8273 36.6853 17.7782 37.3262 19.5877C38.3409 22.4532 41.0638 24.3784 44.1018 24.3784Z" fill="#3453F3"/>
<path d="M74.5345 35.6285L73.8415 25.6673C73.7591 24.4843 72.7275 23.522 71.5376 23.522L58.2219 23.5452C57.6258 23.5462 57.0778 23.7827 56.6789 24.2112C56.2801 24.6395 56.083 25.2029 56.1246 25.7977L56.8176 35.7589C56.9 36.9419 57.9316 37.9042 59.1175 37.9042L72.4372 37.881C73.0333 37.88 73.5813 37.6436 73.9802 37.2152C74.379 36.7867 74.5759 36.2232 74.5345 35.6285Z" fill="#3453F3"/>
<defs>
<clipPath id="clip0_5101_8837">
<rect width="66" height="66" fill="white" transform="translate(0.583984 17.665) rotate(-15)"/>
</clipPath>
</defs>
</svg>
