<svg width="87" height="87" viewBox="0 0 87 87" fill="none" xmlns="http://www.w3.org/2000/svg">
<g opacity="0.1" clip-path="url(#clip0_5101_8836)">
<path d="M5.56487 38.4041C4.82687 36.2715 4.96859 33.9323 5.95885 31.9011C6.94911 29.8699 8.70681 28.313 10.8453 27.5729L59.2234 10.8309C61.3619 10.0909 63.7059 10.2283 65.7399 11.2129C67.7738 12.1976 69.3311 13.9488 70.0691 16.0814L81.1997 48.2445C81.9377 50.3771 81.7959 52.7163 80.8057 54.7475C79.8154 56.7787 78.0577 58.3356 75.9193 59.0757L27.5411 75.8177C25.4027 76.5577 23.0586 76.4203 21.0247 75.4357C18.9907 74.451 17.4334 72.6998 16.6954 70.5672L5.56487 38.4041ZM17.035 38.9365C16.5004 39.1216 16.0609 39.5108 15.8134 40.0186C15.5658 40.5264 15.5304 41.1112 15.7149 41.6443L17.1062 45.6647C17.2907 46.1979 17.68 46.6357 18.1885 46.8818C18.697 47.128 19.283 47.1624 19.8176 46.9773L27.8806 44.187C28.4153 44.002 28.8547 43.6128 29.1022 43.105C29.3498 42.5972 29.3852 42.0124 29.2007 41.4792L27.8094 37.4588C27.6249 36.9257 27.2356 36.4879 26.7271 36.2417C26.2186 35.9956 25.6326 35.9612 25.098 36.1462L17.035 38.9365ZM21.2089 50.9977C20.6743 51.1827 20.2349 51.572 19.9873 52.0798C19.7398 52.5876 19.7043 53.1724 19.8888 53.7055C20.0733 54.2387 20.4627 54.6765 20.9712 54.9226C21.4796 55.1688 22.0656 55.2031 22.6003 55.0181L42.7578 48.0423C43.2924 47.8573 43.7319 47.4681 43.9794 46.9603C44.227 46.4524 44.2624 45.8676 44.0779 45.3345C43.8934 44.8014 43.5041 44.3636 42.9956 44.1174C42.4871 43.8712 41.9011 43.8369 41.3665 44.0219L21.2089 50.9977ZM23.9916 59.0385C23.457 59.2235 23.0175 59.6128 22.77 60.1206C22.5224 60.6284 22.487 61.2132 22.6715 61.7463C22.856 62.2794 23.2453 62.7173 23.7538 62.9634C24.2623 63.2096 24.8483 63.2439 25.3829 63.0589L29.4144 61.6638C29.949 61.4787 30.3885 61.0895 30.636 60.5817C30.8836 60.0739 30.919 59.4891 30.7345 58.956C30.55 58.4228 30.1607 57.985 29.6522 57.7389C29.1437 57.4927 28.5577 57.4583 28.0231 57.6434L23.9916 59.0385ZM36.0861 54.853C35.5515 55.038 35.1121 55.4273 34.8645 55.9351C34.617 56.4429 34.5815 57.0277 34.766 57.5608C34.9505 58.0939 35.3398 58.5318 35.8483 58.7779C36.3568 59.0241 36.9428 59.0584 37.4774 58.8734L41.509 57.4782C42.0436 57.2932 42.483 56.904 42.7306 56.3962C42.9781 55.8884 43.0136 55.3036 42.8291 54.7705C42.6446 54.2373 42.2552 53.7995 41.7467 53.5534C41.2383 53.3072 40.6523 53.2728 40.1176 53.4579L36.0861 54.853ZM48.1807 50.6675C47.6461 50.8525 47.2066 51.2417 46.9591 51.7496C46.7115 52.2574 46.6761 52.8422 46.8606 53.3753C47.0451 53.9084 47.4344 54.3462 47.9429 54.5924C48.4514 54.8386 49.0374 54.8729 49.572 54.6879L53.6035 53.2927C54.1381 53.1077 54.5775 52.7185 54.8251 52.2107C55.0727 51.7029 55.1081 51.1181 54.9236 50.585C54.7391 50.0518 54.3498 49.614 53.8413 49.3679C53.3328 49.1217 52.7468 49.0873 52.2122 49.2723L48.1807 50.6675ZM60.2752 46.482C59.7406 46.667 59.3012 47.0562 59.0536 47.564C58.806 48.0719 58.7706 48.6567 58.9551 49.1898C59.1396 49.7229 59.5289 50.1607 60.0374 50.4069C60.5459 50.6531 61.1319 50.6874 61.6665 50.5024L65.698 49.1072C66.2327 48.9222 66.6721 48.533 66.9196 48.0252C67.1672 47.5174 67.2026 46.9326 67.0181 46.3995C66.8336 45.8663 66.4443 45.4285 65.9358 45.1823C65.4273 44.9362 64.8413 44.9018 64.3067 45.0868L60.2752 46.482Z" fill="#3453F3"/>
</g>
<g clip-path="url(#clip1_5101_8836)">
<path d="M18.332 30.5223C18.332 28.2657 19.231 26.1015 20.8311 24.5058C22.4312 22.9101 24.6014 22.0137 26.8642 22.0137L78.0574 22.0137C80.3203 22.0137 82.4905 22.9101 84.0906 24.5058C85.6907 26.1015 86.5896 28.2657 86.5896 30.5223V64.557C86.5896 66.8137 85.6907 68.9779 84.0906 70.5736C82.4905 72.1692 80.3203 73.0657 78.0574 73.0657H26.8642C24.6014 73.0657 22.4312 72.1692 20.8311 70.5736C19.231 68.9779 18.332 66.8137 18.332 64.557L18.332 30.5223ZM28.9973 34.7767C28.4316 34.7767 27.889 35.0008 27.489 35.3997C27.089 35.7986 26.8642 36.3397 26.8642 36.9038V41.1582C26.8642 41.7223 27.089 42.2634 27.489 42.6623C27.889 43.0612 28.4316 43.2853 28.9973 43.2853H37.5295C38.0952 43.2853 38.6377 43.0612 39.0378 42.6623C39.4378 42.2634 39.6625 41.7223 39.6625 41.1582V36.9038C39.6625 36.3397 39.4378 35.7986 39.0378 35.3997C38.6377 35.0008 38.0952 34.7767 37.5295 34.7767H28.9973ZM28.9973 47.5397C28.4316 47.5397 27.889 47.7638 27.489 48.1627C27.089 48.5616 26.8642 49.1027 26.8642 49.6668C26.8642 50.231 27.089 50.7721 27.489 51.171C27.889 51.5699 28.4316 51.794 28.9973 51.794H50.3278C50.8935 51.794 51.436 51.5699 51.8361 51.171C52.2361 50.7721 52.4608 50.231 52.4608 49.6668C52.4608 49.1027 52.2361 48.5616 51.8361 48.1627C51.436 47.7638 50.8935 47.5397 50.3278 47.5397H28.9973ZM28.9973 56.0483C28.4316 56.0483 27.889 56.2725 27.489 56.6714C27.089 57.0703 26.8642 57.6114 26.8642 58.1755C26.8642 58.7397 27.089 59.2807 27.489 59.6796C27.889 60.0786 28.4316 60.3027 28.9973 60.3027H33.2634C33.8291 60.3027 34.3716 60.0786 34.7717 59.6796C35.1717 59.2807 35.3964 58.7397 35.3964 58.1755C35.3964 57.6114 35.1717 57.0703 34.7717 56.6714C34.3716 56.2725 33.8291 56.0483 33.2634 56.0483H28.9973ZM41.7956 56.0483C41.2299 56.0483 40.6873 56.2725 40.2873 56.6714C39.8873 57.0703 39.6625 57.6114 39.6625 58.1755C39.6625 58.7397 39.8873 59.2807 40.2873 59.6796C40.6873 60.0786 41.2299 60.3027 41.7956 60.3027H46.0617C46.6274 60.3027 47.1699 60.0786 47.57 59.6796C47.97 59.2807 48.1947 58.7397 48.1947 58.1755C48.1947 57.6114 47.97 57.0703 47.57 56.6714C47.1699 56.2725 46.6274 56.0483 46.0617 56.0483H41.7956ZM54.5939 56.0483C54.0282 56.0483 53.4856 56.2725 53.0856 56.6714C52.6856 57.0703 52.4608 57.6114 52.4608 58.1755C52.4608 58.7397 52.6856 59.2807 53.0856 59.6796C53.4856 60.0786 54.0282 60.3027 54.5939 60.3027H58.86C59.4257 60.3027 59.9682 60.0786 60.3683 59.6796C60.7683 59.2807 60.993 58.7397 60.993 58.1755C60.993 57.6114 60.7683 57.0703 60.3683 56.6714C59.9682 56.2725 59.4257 56.0483 58.86 56.0483H54.5939ZM67.3922 56.0483C66.8265 56.0483 66.2839 56.2725 65.8839 56.6714C65.4839 57.0703 65.2591 57.6114 65.2591 58.1755C65.2591 58.7397 65.4839 59.2807 65.8839 59.6796C66.2839 60.0786 66.8265 60.3027 67.3922 60.3027H71.6583C72.224 60.3027 72.7665 60.0786 73.1666 59.6796C73.5666 59.2807 73.7913 58.7397 73.7913 58.1755C73.7913 57.6114 73.5666 57.0703 73.1666 56.6714C72.7665 56.2725 72.224 56.0483 71.6583 56.0483H67.3922Z" fill="#3453F3"/>
</g>
<defs>
<clipPath id="clip0_5101_8836">
<rect width="68.2576" height="68.0694" fill="white" transform="translate(0 22.3223) rotate(-19.089)"/>
</clipPath>
<clipPath id="clip1_5101_8836">
<rect width="68.2576" height="68.0694" fill="white" transform="translate(18.332 13.5049)"/>
</clipPath>
</defs>
</svg>
