<svg width="24" height="24" viewBox="0 0 24 24" fill="none" xmlns="http://www.w3.org/2000/svg">
<path d="M11.3991 0.00398055C9.47309 0.0272306 5.33234 0.343731 3.01634 2.46848C1.29359 4.17548 0.692093 6.69923 0.621593 9.81998C0.563093 12.9295 0.492593 18.769 6.12134 20.359V22.7807C6.12134 22.7807 6.08609 23.7497 6.72659 23.9485C7.51559 24.1982 7.96484 23.4527 8.71484 22.6517L10.1136 21.07C13.9648 21.3902 16.9146 20.6522 17.2543 20.5427C18.0358 20.293 22.4376 19.7305 23.1568 13.8902C23.8948 7.85873 22.7976 4.05848 20.8168 2.33948H20.8048C20.2071 1.78898 17.8048 0.0384806 12.4378 0.0189806C12.4378 0.0189806 12.0396 -0.00801945 11.3991 0.00323055V0.00398055ZM11.4651 1.69973C12.0118 1.69598 12.3441 1.71923 12.3441 1.71923C16.8868 1.73123 19.0551 3.09848 19.5666 3.55898C21.2346 4.98848 22.0941 8.41448 21.4648 13.45C20.8671 18.3325 17.2971 18.6415 16.6363 18.8522C16.3551 18.9422 13.7571 19.5827 10.4841 19.372C10.4841 19.372 8.04659 22.3135 7.28459 23.071C7.16384 23.2037 7.02284 23.2427 6.93284 23.2232C6.80384 23.1917 6.76484 23.032 6.77234 22.813L6.79559 18.7937C2.02184 17.4737 2.30309 12.493 2.35409 9.89123C2.41259 7.28948 2.90084 5.16098 4.35434 3.71948C6.31109 1.95023 9.82709 1.71173 11.4636 1.69973H11.4651ZM11.8251 4.30073C11.7858 4.30033 11.7468 4.30772 11.7104 4.32246C11.674 4.3372 11.6408 4.359 11.6129 4.38661C11.5849 4.41422 11.5627 4.44709 11.5475 4.48332C11.5323 4.51955 11.5244 4.55844 11.5243 4.59773C11.5243 4.76573 11.6608 4.89848 11.8251 4.89848C12.5687 4.88434 13.3078 5.01756 13.9997 5.29045C14.6916 5.56334 15.3226 5.97052 15.8563 6.48848C16.9461 7.54673 17.4771 8.96873 17.4973 10.828C17.4973 10.9922 17.6301 11.1287 17.7981 11.1287V11.1167C17.8773 11.1169 17.9533 11.0858 18.0097 11.0302C18.066 10.9746 18.0981 10.8989 18.0988 10.8197C18.1353 9.94459 17.9933 9.07119 17.6817 8.2526C17.3701 7.43402 16.8953 6.68735 16.2861 6.05798C15.0988 4.89773 13.5943 4.29998 11.8251 4.29998V4.30073ZM7.87184 4.98848C7.65955 4.95746 7.44304 5.00008 7.25834 5.10923H7.24259C6.81379 5.36058 6.4275 5.67827 6.09809 6.05048C5.82434 6.36698 5.67584 6.68723 5.63684 6.99548C5.61359 7.17923 5.62934 7.36298 5.68409 7.53848L5.70359 7.55048C6.01184 8.45648 6.41459 9.32798 6.90659 10.1485C7.54036 11.3012 8.32031 12.3673 9.22709 13.3202L9.25409 13.3592L9.29684 13.3907L9.32384 13.4222L9.35534 13.4492C10.3118 14.3587 11.3804 15.1423 12.5353 15.781C13.8553 16.4995 14.6563 16.8392 15.1371 16.9802V16.9877C15.2781 17.0305 15.4063 17.05 15.5353 17.05C15.9451 17.02 16.3329 16.8536 16.6371 16.5775C17.0076 16.248 17.3218 15.8601 17.5671 15.4292V15.4217C17.7973 14.9882 17.7193 14.578 17.3871 14.3005C16.7217 13.7189 16.0022 13.2022 15.2383 12.7577C14.7268 12.4802 14.2071 12.6482 13.9963 12.9295L13.5471 13.4957C13.3168 13.777 12.8983 13.738 12.8983 13.738L12.8863 13.7455C9.76559 12.9482 8.93309 9.78848 8.93309 9.78848C8.93309 9.78848 8.89409 9.35873 9.18284 9.13973L9.74534 8.68673C10.0146 8.46773 10.2021 7.94873 9.91334 7.43648C9.47189 6.6716 8.95642 5.95189 8.37434 5.28773C8.24709 5.13115 8.06857 5.02462 7.87034 4.98698L7.87184 4.98848ZM12.3441 5.87948C11.9458 5.87948 11.9458 6.48098 12.3478 6.48098C12.8431 6.48901 13.3318 6.59456 13.7862 6.79158C14.2406 6.9886 14.6517 7.27324 14.9961 7.62923C15.3102 7.97574 15.5516 8.38177 15.7059 8.82326C15.8603 9.26476 15.9244 9.73274 15.8946 10.1995C15.896 10.2785 15.9282 10.3538 15.9844 10.4093C16.0406 10.4648 16.1163 10.4961 16.1953 10.4965L16.2073 10.5122C16.2869 10.5116 16.3631 10.4798 16.4194 10.4235C16.4756 10.3672 16.5075 10.2911 16.5081 10.2115C16.5351 9.01973 16.1646 8.01998 15.4378 7.21898C14.7073 6.41798 13.6881 5.96873 12.3868 5.87948H12.3441ZM12.8368 7.49648C12.4266 7.48448 12.4108 8.09798 12.8173 8.10998C13.8058 8.16098 14.2858 8.66048 14.3488 9.68798C14.3502 9.76597 14.3821 9.84033 14.4376 9.89514C14.4931 9.94995 14.5678 9.98085 14.6458 9.98123H14.6578C14.6979 9.97951 14.7373 9.96982 14.7736 9.95272C14.8099 9.93563 14.8425 9.91147 14.8694 9.88166C14.8963 9.85184 14.9169 9.81698 14.9302 9.77909C14.9434 9.7412 14.949 9.70105 14.9466 9.66098C14.8761 8.32148 14.1456 7.56698 12.8488 7.49723H12.8368V7.49648Z" fill="#713EA4"/>
</svg>
