<svg width="21" height="21" viewBox="0 0 21 21" fill="none" xmlns="http://www.w3.org/2000/svg">
<path d="M15.3603 0.0947503C16.8588 0.00109715 18.3364 0.521392 19.4499 1.54117C20.4697 2.6546 20.99 4.13224 20.9067 5.6411V15.3602C21.0004 16.8691 20.4697 18.3467 19.4603 19.4601C18.3468 20.4799 16.8588 21.0002 15.3603 20.9066H5.64114C4.13227 21.0002 2.65462 20.4799 1.54118 19.4601C0.521396 18.3467 0.00109648 16.8691 0.0947503 15.3602V5.6411C0.00109648 4.13224 0.521396 2.6546 1.54118 1.54117C2.65462 0.521392 4.13227 0.00109715 5.64114 0.0947503H15.3603ZM15.0898 4.85025C14.4446 4.20508 13.404 4.20508 12.7588 4.85025L12.0616 5.55785C11.9576 5.66191 11.9576 5.83881 12.0616 5.94287C12.0616 5.94287 12.0821 5.96316 12.1184 5.99931L12.3744 6.25387C12.5224 6.40118 12.7072 6.58514 12.8928 6.77014L13.5221 7.39909C13.6534 7.53099 13.7405 7.61937 13.7474 7.62862C13.8619 7.75349 13.9347 7.91999 13.9347 8.1073C13.9347 8.48191 13.6329 8.79408 13.2479 8.79408C13.071 8.79408 12.9045 8.72124 12.7901 8.60678L11.0523 6.8794C10.969 6.79615 10.8233 6.79615 10.7401 6.8794L5.77642 11.843C5.43302 12.1864 5.23531 12.6443 5.2249 13.1333L5.16247 15.5995C5.16247 15.7348 5.20409 15.8597 5.29774 15.9533C5.3914 16.047 5.51627 16.099 5.65155 16.099H8.09695C8.59644 16.099 9.07512 15.9013 9.43933 15.5475L16.4426 8.52353C17.0773 7.87837 17.0773 6.83777 16.4426 6.20301L15.0898 4.85025Z" fill="#3453F3"/>
</svg>
