<svg width="32" height="37" viewBox="0 0 32 37" fill="none" xmlns="http://www.w3.org/2000/svg">
<path fill-rule="evenodd" clip-rule="evenodd" d="M22.539 0.0575999C21.3143 0.1988 19.9831 0.686044 18.9174 1.38322C17.6919 2.18495 16.4747 3.58296 15.8906 4.85974C15.3899 5.95397 15.0548 7.43066 15.0545 8.54313C15.0536 11.4967 17.186 15.83 20.9242 20.4718C21.994 21.8003 22.2409 21.9985 23.0644 22.1899C23.8917 22.3822 24.6972 22.0917 25.4029 21.3467C26.0063 20.7097 27.6787 18.4992 28.5545 17.1812C31.2791 13.0808 32.328 10.0019 31.912 7.32528C31.191 2.6861 27.1201 -0.470479 22.539 0.0575999ZM24.2408 5.47645C24.8607 5.63589 25.2438 5.84852 25.6703 6.26957C27.1571 7.73804 26.6899 10.2225 24.7602 11.1096C24.3823 11.2833 24.2339 11.3074 23.5351 11.3088C22.8183 11.3101 22.698 11.2899 22.3141 11.1037C21.1102 10.5196 20.4329 9.39953 20.5285 8.15094C20.6694 6.31048 22.4623 5.01897 24.2408 5.47645ZM9.0259 14.5935C8.82114 14.7957 8.76844 14.9074 8.76844 15.1394C8.76844 15.3878 9.54069 17.702 9.93303 18.6294C10.0534 18.914 10.4413 19.1997 10.7078 19.2001C11.0333 19.2007 14.0133 18.0879 14.2265 17.8862C14.7139 17.425 14.4818 16.6541 13.7874 16.4278C13.5522 16.3512 13.4252 16.38 12.4334 16.7352C11.8315 16.9508 11.3215 17.11 11.3001 17.0889C11.2788 17.0677 11.0744 16.533 10.8459 15.9005C10.3569 14.5467 10.1955 14.3392 9.6305 14.3392C9.33669 14.3392 9.24385 14.3782 9.0259 14.5935ZM5.84449 15.6091C5.63397 15.6931 5.38271 16.0145 5.32516 16.2736C5.29032 16.4301 5.64313 17.4662 6.76562 20.5037C7.58324 22.7163 8.22351 24.5533 8.18852 24.5859C8.15346 24.6185 6.455 25.2415 4.41417 25.9703C2.37334 26.699 0.60839 27.3434 0.491999 27.4021C-0.240048 27.7723 -0.13176 28.8461 0.661171 29.0796C0.912885 29.1537 1.19368 29.0649 4.8892 27.7421C7.06633 26.9628 8.86355 26.3506 8.88301 26.3817C8.90247 26.4128 9.75288 28.6977 10.7728 31.4593C11.7927 34.2209 12.663 36.5464 12.7068 36.6272C12.8166 36.8299 13.1764 37 13.495 37C13.8416 37 14.2612 36.6483 14.3268 36.3027C14.3655 36.099 13.9334 34.853 11.8822 29.2544C7.97649 18.5948 7.03975 16.0737 6.91428 15.8846C6.70875 15.5749 6.23569 15.453 5.84449 15.6091ZM13.7285 20.0302C11.2199 20.9389 11.1163 20.9989 11.1155 21.5417C11.1153 21.7675 11.8069 23.7313 13.5835 28.5489C15.8419 34.6729 16.0746 35.2639 16.3187 35.4943C16.5602 35.7223 16.6176 35.7426 16.9268 35.7081C17.1771 35.6803 17.3315 35.6077 17.5051 35.4361C17.8919 35.0539 17.8476 34.848 16.7336 31.8532C15.7737 29.2724 15.7548 29.2101 15.9135 29.1406C16.0029 29.1015 18.1718 28.317 20.7332 27.3972C23.8517 26.2774 25.4063 25.7528 25.4385 25.8094C25.465 25.8559 25.6463 26.3315 25.8414 26.8662C26.0365 27.4009 26.2686 27.9149 26.3571 28.0084C26.7026 28.3733 27.2792 28.3476 27.6432 27.9509C27.8828 27.6898 27.9169 27.3259 27.7457 26.8569C27.6875 26.6975 27.5198 26.2423 27.373 25.8454L27.1063 25.1237L28.2004 24.7318C29.4744 24.2756 29.6689 24.1206 29.6689 23.5623C29.6689 23.2773 29.6283 23.1839 29.4114 22.9698C29.2035 22.7644 29.0951 22.7155 28.8476 22.7155C28.6348 22.7155 26.7637 23.3576 22.7251 24.8165C15.0278 27.5971 15.2071 27.5347 15.1361 27.457C15.0803 27.3959 13.2717 22.5099 13.2203 22.2817C13.2059 22.2175 13.8018 21.9591 14.9777 21.5199C16.2675 21.0382 16.8031 20.8025 16.9243 20.6633C17.4339 20.0782 17.0251 19.1933 16.2502 19.2039C16.1128 19.2057 14.978 19.5776 13.7285 20.0302Z" fill="#002638"/>
</svg>
