<svg width="101" height="100" viewBox="0 0 101 100" fill="none" xmlns="http://www.w3.org/2000/svg">
<path d="M47.4783 1.27017C49.0757 -0.29486 51.6314 -0.29486 53.2287 1.27017L59.5978 7.51055C60.6248 8.5168 62.1032 8.91292 63.4957 8.55499L72.1318 6.33524C74.2976 5.77854 76.5109 7.05639 77.1117 9.21041L79.5074 17.7993C79.8937 19.1843 80.9759 20.2665 82.3608 20.6528L90.9497 23.0484C93.1037 23.6492 94.3816 25.8625 93.8249 28.0284L91.6051 36.6644C91.2472 38.057 91.6433 39.5353 92.6496 40.5623L98.89 46.9315C100.455 48.5288 100.455 51.0845 98.89 52.6818L92.6496 59.051C91.6433 60.078 91.2472 61.5563 91.6051 62.9489L93.8249 71.5849C94.3816 73.7507 93.1037 75.964 90.9497 76.5648L82.3608 78.9605C80.9759 79.3468 79.8937 80.429 79.5074 81.814L77.1117 90.4028C76.5109 92.5569 74.2976 93.8347 72.1318 93.278L63.4957 91.0583C62.1032 90.7003 60.6248 91.0965 59.5978 92.1027L53.2287 98.3431C51.6314 99.9081 49.0757 99.9081 47.4783 98.3431L41.1092 92.1027C40.0822 91.0965 38.6038 90.7003 37.2113 91.0583L28.5753 93.278C26.4094 93.8347 24.1961 92.5569 23.5953 90.4028L21.1996 81.814C20.8134 80.429 19.7311 79.3468 18.3462 78.9605L9.75729 76.5648C7.60327 75.964 6.32542 73.7507 6.88211 71.5849L9.10186 62.9489C9.4598 61.5563 9.06368 60.078 8.05742 59.051L1.81705 52.6818C0.252015 51.0845 0.252015 48.5288 1.81705 46.9315L8.05742 40.5623C9.06368 39.5353 9.4598 38.057 9.10186 36.6644L6.88211 28.0284C6.32542 25.8625 7.60327 23.6492 9.75729 23.0484L18.3462 20.6528C19.7311 20.2665 20.8134 19.1843 21.1996 17.7993L23.5953 9.21041C24.1961 7.05639 26.4094 5.77854 28.5753 6.33524L37.2113 8.55499C38.6038 8.91292 40.0822 8.5168 41.1092 7.51055L47.4783 1.27017Z" fill="#E4E9EC"/>
</svg>
